<?xml version="1.0" standalone="no"?>
<!DOCTYPE svg PUBLIC "-//W3C//DTD SVG 20010904//EN"
 "http://www.w3.org/TR/2001/REC-SVG-20010904/DTD/svg10.dtd">
<svg version="1.0" xmlns="http://www.w3.org/2000/svg"
 width="260.000000pt" height="260.000000pt" viewBox="0 0 260.000000 260.000000"
 preserveAspectRatio="xMidYMid meet">
<metadata>
Created by potrace 1.11, written by Peter Selinger 2001-2013
</metadata>
<g transform="translate(0.000000,260.000000) scale(0.100000,-0.100000)"
fill="#000000" stroke="none">
<path d="M612 1988 c-21 -35 -100 -155 -174 -268 -247 -376 -268 -409 -268
-420 0 -5 75 -124 166 -263 91 -138 200 -305 242 -369 73 -112 93 -131 107
-108 7 11 -21 56 -293 469 -150 229 -172 267 -164 286 9 20 71 115 354 547 60
92 107 172 103 178 -14 22 -35 7 -73 -52z"/>
<path d="M1947 2044 c-10 -11 3 -33 235 -386 125 -192 228 -353 228 -358 0 -5
-55 -94 -123 -197 -366 -557 -363 -553 -323 -553 19 0 499 737 494 758 -3 9
-83 136 -179 282 -96 146 -203 309 -238 363 -58 89 -77 108 -94 91z"/>
<path d="M1205 1706 c-192 -62 -307 -215 -307 -406 0 -236 182 -418 417 -418
120 0 211 37 296 121 114 112 152 273 102 432 -41 128 -156 235 -293 272 -52
14 -169 13 -215 -1z m234 -51 c147 -48 252 -195 252 -353 1 -108 -33 -190
-113 -271 -181 -183 -494 -124 -605 114 -24 52 -28 72 -28 155 0 84 3 103 29
157 80 174 281 260 465 198z"/>
</g>
</svg>
