<?xml version="1.0" encoding="utf-8"?>
<!-- Generator: Adobe Illustrator 19.1.0, SVG Export Plug-In . SVG Version: 6.00 Build 0)  -->
<svg version="1.1" id="Layer_1" xmlns="http://www.w3.org/2000/svg" xmlns:xlink="http://www.w3.org/1999/xlink" x="0px" y="0px"
	 viewBox="0 0 100 100" style="enable-background:new 0 0 100 100;" xml:space="preserve">
<style type="text/css">
	.st0{fill:#FFFFFF;}
</style>
<path id="White_2_" class="st0" d="M94.5,0h-89C2.4,0,0,2.5,0,5.5v89c0,3.1,2.5,5.5,5.5,5.5h47.9V61.3H40.3V46.2h13V35.1
	c0-12.9,7.9-20,19.4-20c5.5,0,10.3,0.4,11.7,0.6v13.5h-8c-6.2,0-7.5,3-7.5,7.4v9.6h15l-1.9,15.1H69V100h25.5c3.1,0,5.5-2.5,5.5-5.5
	v-89C100,2.5,97.5,0,94.5,0z"/>
</svg>
