<svg xmlns="http://www.w3.org/2000/svg" viewBox="0 0 87.85 58.16" height="58" width="87" class="{{ class_names }}" role="presentation">
  <defs>
    <style>
      .cls-1{fill:none;stroke-linecap:round;stroke-linejoin:round;stroke-width:3px;}
    </style>
  </defs>
  <polyline class="cls-1" points="68.27 1.5 86.35 29.08 68.27 56.66"></polyline>
  <polyline class="cls-1" points="19.58 1.5 1.5 29.08 19.58 56.66"></polyline>
  <polygon class="cls-1" points="44.59 20.19 51.95 27.55 37.23 42.27 29.87 42.27 29.87 34.91 44.59 20.19"></polygon>
  <path class="cls-1" d="M611.3,348.22a2.27,2.27,0,0,1,.65,1.61,2.17,2.17,0,0,1-.65,1.59l-2.94,2.94L601,347l2.94-2.92a2.1,2.1,0,0,1,1.59-.67,2.2,2.2,0,0,1,1.61.67l4.16,4.14h0Z" transform="translate(-553.39 -329.83)"></path>
  <line class="cls-1" x1="30.71" y1="34.58" x2="37.66" y2="41.53"></line>
</svg>
