<svg id="Layer_1" xmlns="http://www.w3.org/2000/svg" viewBox="0 0 741 684"><style>.st0{opacity:0.05;fill:#FFFFFF;enable-background:new ;} .st1{opacity:0.05;} .st2{fill:#FFFFFF;}</style><path class="st0" d="M427.9 348.3H315.1c-2.3 0-4.2 1.9-4.2 4.2v113.7c0 2.3 1.9 4.2 4.2 4.2h112.8c2.3 0 4.2-1.9 4.2-4.2V352.5c0-2.3-1.9-4.2-4.2-4.2zM423.7 462H319.3V356.8h104.4V462zM719 544.7l-59.3-59.3c-.8-.8-1.9-1.2-3-1.2s-2.2.4-3 1.2l-58.8 58.8c-1.7 1.7-1.7 4.3 0 6l59.3 59.3c.8.8 1.9 1.2 3 1.2s2.2-.4 3-1.2l58.8-58.8c1.6-1.7 1.6-4.4 0-6zm-61.9 55.8l-53.3-53.3 52.8-52.8 53.3 53.3-52.8 52.8zm-78.2-322.4c2.3 0 4.2-1.9 4.2-4.2V160.1c0-2.3-1.9-4.2-4.2-4.2H466c-2.3 0-4.2 1.9-4.2 4.2v113.7c0 2.3 1.9 4.2 4.2 4.2h112.9v.1zM470.3 164.4h104.4v105.3H470.3V164.4zm126 188.1v81.2c0 2.3 1.9 4.2 4.2 4.2h112.8c2.3 0 4.2-1.9 4.2-4.2v-81.2c0-2.3-1.9-4.2-4.2-4.2H600.5c-2.3 0-4.2 1.9-4.2 4.2zm8.4 4.3h104.4v72.8H604.7v-72.8zM427.9 564.9H315.1c-2.3 0-4.2 1.9-4.2 4.2v81.2c0 2.3 1.9 4.2 4.2 4.2h112.8c2.3 0 4.2-1.9 4.2-4.2v-81.2c0-2.3-1.9-4.2-4.2-4.2zm-4.2 81.2H319.3v-72.8h104.4v72.8zm157-297.8H467.9c-2.3 0-4.2 1.9-4.2 4.2v48.7c0 2.3 1.9 4.2 4.2 4.2h112.8c2.3 0 4.2-1.9 4.2-4.2v-48.7c0-2.3-1.9-4.2-4.2-4.2zm-4.3 48.7H472.1v-40.3h104.4l-.1 40.3zM434.7 75.5l-59.3-59.3c-.8-.8-1.9-1.2-3-1.2s-2.2.4-3 1.2L310.6 75c-1.7 1.7-1.7 4.3 0 6l59.3 59.3c.8.8 1.9 1.2 3 1.2s2.2-.4 3-1.2l58.8-58.8c1.7-1.6 1.7-4.3 0-6zm-61.8 55.9l-53.3-53.3 52.8-52.8 53.3 53.3-52.8 52.8zM314 277.2h112.8c2.3 0 4.2-1.9 4.2-4.2v-48.7c0-2.3-1.9-4.2-4.2-4.2H314c-2.3 0-4.2 1.9-4.2 4.2V273c0 2.3 1.8 4.2 4.2 4.2zm4.2-48.8h104.4v40.3H318.2v-40.3zM468 655.7h112.8c2.3 0 4.2-1.9 4.2-4.2v-48.7c0-2.3-1.9-4.2-4.2-4.2H468c-2.3 0-4.2 1.9-4.2 4.2v48.7c0 2.3 1.9 4.2 4.2 4.2zm4.3-48.8h104.4v40.3H472.3v-40.3zm108.4-193.6H467.9c-2.3 0-4.2 1.9-4.2 4.2v48.7c0 2.3 1.9 4.2 4.2 4.2h112.8c2.3 0 4.2-1.9 4.2-4.2v-48.7c0-2.3-1.9-4.2-4.2-4.2zm-4.3 48.7H472.1v-40.3h104.4l-.1 40.3zM714.7 15.1H601.9c-2.3 0-4.2 1.9-4.2 4.2V68c0 2.3 1.9 4.2 4.2 4.2h112.8c2.3 0 4.2-1.9 4.2-4.2V19.3c0-2.4-1.9-4.2-4.2-4.2zm-4.3 48.7H606.1V23.5h104.4l-.1 40.3zm4.3 16.2H601.9c-2.3 0-4.2 1.9-4.2 4.2V133c0 2.3 1.9 4.2 4.2 4.2h112.8c2.3 0 4.2-1.9 4.2-4.2V84.3c0-2.4-1.9-4.3-4.2-4.3zm-4.3 48.8H606.1V88.5h104.4l-.1 40.3zm2.9 317H600.5c-2.3 0-4.2 1.9-4.2 4.2v16.2c0 2.3 1.9 4.2 4.2 4.2h112.8c2.3 0 4.2-1.9 4.2-4.2V450c0-2.3-1.8-4.2-4.2-4.2zm-4.2 16.2H604.7v-7.8h104.4v7.8zm-189-174.1c-2.3 0-4.2 1.9-4.2 4.2V325l-5.5-5.5c-1.7-1.7-4.3-1.7-6 0s-1.7 4.3 0 6l12.7 12.7c.8.8 1.9 1.2 3 1.2s2.2-.4 3-1.2l12.8-12.8c1.7-1.7 1.7-4.3 0-6s-4.3-1.7-6 0l-5.5 5.5v-32.8c-.1-2.3-2-4.2-4.3-4.2zm-148.2 0c-2.3 0-4.2 1.9-4.2 4.2V325l-5.5-5.5c-1.7-1.7-4.3-1.7-6 0s-1.7 4.3 0 6l12.7 12.7c.8.8 1.9 1.2 3 1.2s2.2-.4 3-1.2l12.8-12.8c1.7-1.7 1.7-4.3 0-6s-4.3-1.7-6 0l-5.5 5.5v-32.8c-.1-2.3-1.9-4.2-4.3-4.2zm0-129.1c-2.3 0-4.2 1.9-4.2 4.2v32.8l-5.5-5.5c-1.7-1.7-4.3-1.7-6 0s-1.7 4.3 0 6l12.7 12.7c.8.8 1.9 1.2 3 1.2s2.2-.4 3-1.2l12.8-12.8c1.7-1.7 1.7-4.3 0-6s-4.3-1.7-6 0l-5.5 5.5V163c-.1-2.3-1.9-4.2-4.3-4.2zM531 73.6h-65.4c-2.3 0-4.2 1.9-4.2 4.2s1.9 4.2 4.2 4.2H531M371.5 482.7c-2.3 0-4.2 1.9-4.2 4.2v50.5l-5.5-5.5c-1.7-1.7-4.3-1.7-6 0s-1.7 4.3 0 6l12.7 12.7c.8.8 1.9 1.2 3 1.2s2.2-.4 3-1.2l12.8-12.8c1.7-1.7 1.7-4.3 0-6s-4.3-1.7-6 0l-5.5 5.5v-50.5c-.1-2.2-2-4.1-4.3-4.1zm241.2-250.9c1.1 0 2.2-.4 3-1.2 1.7-1.7 1.7-4.3 0-6l-5.5-5.5H654v106l-5.6-5.6c-1.7-1.7-4.3-1.7-6 0s-1.7 4.3 0 6l12.7 12.7c.8.8 1.9 1.2 3 1.2s2.2-.4 3-1.2l12.8-12.8c1.7-1.7 1.7-4.3 0-6s-4.3-1.7-6 0l-5.5 5.5V214.8c0-2.3-1.9-4.2-4.2-4.2h-48.1l5.5-5.5c1.7-1.7 1.7-4.3 0-6s-4.3-1.7-6 0l-12.7 12.7c-1.7 1.7-1.7 4.3 0 6l12.8 12.8c.8.7 1.9 1.2 3 1.2zM658.2 623c-2.3 0-4.2 1.9-4.2 4.2V660l-5.5-5.5c-1.7-1.7-4.3-1.7-6 0-1.7 1.7-1.7 4.3 0 6l12.7 12.7c.8.8 1.9 1.2 3 1.2s2.2-.4 3-1.2l12.8-12.8c1.7-1.7 1.7-4.3 0-6-1.7-1.7-4.3-1.7-6 0l-5.5 5.5v-32.7c0-2.3-1.8-4.2-4.3-4.2z"/><path class="st0" d="M539.9 123.3c0-1.1-.4-2.2-1.2-3-1.7-1.7-4.3-1.7-6 0l-5.5 5.5V81.9h41.1l-5.6 5.6c-1.7 1.7-1.7 4.3 0 6s4.3 1.7 6 0l12.7-12.7c.8-.8 1.2-1.9 1.2-3s-.4-2.2-1.2-3L568.6 62c-1.7-1.7-4.3-1.7-6 0s-1.7 4.3 0 6l5.5 5.5h-45.2c-2.3 0-4.2 1.9-4.2 4.2v48.1l-5.5-5.5c-1.7-1.7-4.3-1.7-6 0s-1.7 4.3 0 6l12.7 12.7c1.7 1.7 4.3 1.7 6 0l12.8-12.8c.8-.8 1.2-1.9 1.2-2.9zm23 408.6c-1.7-1.7-4.3-1.7-6 0s-1.7 4.3 0 6l5.5 5.5h-38.1v-46.3l5.5 5.5c1.7 1.7 4.3 1.7 6 0s1.7-4.3 0-6l-12.7-12.7c-1.7-1.7-4.3-1.7-6 0l-12.8 12.8c-1.7 1.7-1.7 4.3 0 6 .8.8 1.9 1.2 3 1.2s2.2-.4 3-1.2l5.5-5.5v49.7c-.1.3-.1.6-.1.9 0 2.3 1.9 4.2 4.2 4.2h42.4l-5.5 5.5c-1.7 1.7-1.7 4.3 0 6 .8.8 1.9 1.2 3 1.2s2.2-.4 3-1.2l12.7-12.7c1.7-1.7 1.7-4.3 0-6l-12.6-12.9z"/><path class="st1 st2" d="M5.2 502.8h100c2.5 0 4.6-2.1 4.6-4.6s-2.1-4.6-4.6-4.6H5.2c-2.5 0-4.6 2.1-4.6 4.6s2.1 4.6 4.6 4.6zm0 17.6h74c2.5 0 4.6-2.1 4.6-4.6s-2.1-4.6-4.6-4.6h-74c-2.5 0-4.6 2.1-4.6 4.6s2.1 4.6 4.6 4.6zm91.2 0h74c2.5 0 4.6-2.1 4.6-4.6s-2.1-4.6-4.6-4.6h-74c-2.5 0-4.6 2.1-4.6 4.6s2 4.6 4.6 4.6zM5.2 555.6H45c2.5 0 4.6-2.1 4.6-4.6s-2.1-4.6-4.6-4.6H5.2c-2.5 0-4.6 2.1-4.6 4.6s2.1 4.6 4.6 4.6zm41.3 13c0 2.5 2.1 4.6 4.6 4.6h81.8c2.5 0 4.6-2.1 4.6-4.6s-2.1-4.6-4.6-4.6H51.1c-2.6 0-4.6 2.1-4.6 4.6zm61.7 13H51.1c-2.5 0-4.6 2.1-4.6 4.6s2.1 4.6 4.6 4.6h57.2c2.5 0 4.6-2.1 4.6-4.6-.1-2.5-2.1-4.6-4.7-4.6zm-58.7 39.8c0-2.5-2.1-4.6-4.6-4.6H5.2c-2.5 0-4.6 2.1-4.6 4.6s2.1 4.6 4.6 4.6H45c2.5 0 4.5-2 4.5-4.6zm92.5 13.1H51c-2.5 0-4.6 2.1-4.6 4.6s2.1 4.6 4.6 4.6h91c2.5 0 4.6-2.1 4.6-4.6s-2-4.6-4.6-4.6zm-90.9 17.6c-2.5 0-4.6 2.1-4.6 4.6s2.1 4.6 4.6 4.6h64.2c2.5 0 4.6-2.1 4.6-4.6s-2.1-4.6-4.6-4.6H51.1zm95.5-78.9h47c2.5 0 4.6-2.1 4.6-4.6s-2.1-4.6-4.6-4.6h-47c-2.5 0-4.6 2.1-4.6 4.6s2.1 4.6 4.6 4.6zm61 0h29c2.5 0 4.6-2.1 4.6-4.6s-2.1-4.6-4.6-4.6h-29c-2.5 0-4.6 2.1-4.6 4.6s2 4.6 4.6 4.6zm68.5 8.4H122c-2.5 0-4.6 2.1-4.6 4.6s2.1 4.6 4.6 4.6h154.1c2.5 0 4.6-2.1 4.6-4.6s-2-4.6-4.6-4.6zm-82.5 62.1c2.5 0 4.6-2.1 4.6-4.6s-2.1-4.6-4.6-4.6h-37.9c-2.5 0-4.6 2.1-4.6 4.6s2.1 4.6 4.6 4.6h37.9zm70.5-9.2h-56.5c-2.5 0-4.6 2.1-4.6 4.6s2.1 4.6 4.6 4.6h56.5c2.5 0 4.6-2.1 4.6-4.6s-2.1-4.6-4.6-4.6zm-139.3 22.2c0 2.5 2.1 4.6 4.6 4.6h64.5c2.5 0 4.6-2.1 4.6-4.6s-2.1-4.6-4.6-4.6h-64.5c-2.6 0-4.6 2-4.6 4.6zm83-4.6c-2.5 0-4.6 2.1-4.6 4.6s2.1 4.6 4.6 4.6H234c2.5 0 4.6-2.1 4.6-4.6s-2.1-4.6-4.6-4.6h-26.2zm35.3 4.6c0 2.5 2.1 4.6 4.6 4.6h26.2c2.5 0 4.6-2.1 4.6-4.6s-2.1-4.6-4.6-4.6h-26.2c-2.5 0-4.6 2-4.6 4.6zM49.5 4.6c0-2.5-2-4.6-4.5-4.6H5.2C2.7 0 .6 2.1.6 4.6s2.1 4.6 4.6 4.6H45c2.5 0 4.5-2.1 4.5-4.6zm92.5 13H51c-2.5 0-4.6 2.1-4.6 4.6s2.1 4.6 4.6 4.6h91c2.5 0 4.6-2.1 4.6-4.6s-2-4.6-4.6-4.6zM51.1 35.2c-2.5 0-4.6 2.1-4.6 4.6s2.1 4.6 4.6 4.6h64.2c2.5 0 4.6-2.1 4.6-4.6s-2.1-4.6-4.6-4.6H51.1zm39.7 17.6H51.1c-2.5 0-4.6 2.1-4.6 4.6s2.1 4.6 4.6 4.6h39.7c2.5 0 4.6-2.1 4.6-4.6s-2.1-4.6-4.6-4.6zm0 17.6H51.1c-2.5 0-4.6 2.1-4.6 4.6s2.1 4.6 4.6 4.6h39.7c2.5 0 4.6-2.1 4.6-4.6s-2.1-4.6-4.6-4.6zm13.8-8.4h50.3c2.5 0 4.6-2.1 4.6-4.6s-2.1-4.6-4.6-4.6h-50.3c-2.5 0-4.6 2.1-4.6 4.6 0 2.6 2.1 4.6 4.6 4.6zm89-35.2c2.5 0 4.6-2.1 4.6-4.6s-2.1-4.6-4.6-4.6h-37.9c-2.5 0-4.6 2.1-4.6 4.6s2.1 4.6 4.6 4.6h37.9zm70.5-9.2h-56.5c-2.5 0-4.6 2.1-4.6 4.6s2.1 4.6 4.6 4.6h56.5c2.5 0 4.6-2.1 4.6-4.6s-2.1-4.6-4.6-4.6zM124.8 39.8c0 2.5 2.1 4.6 4.6 4.6h64.5c2.5 0 4.6-2.1 4.6-4.6s-2.1-4.6-4.6-4.6h-64.5c-2.6 0-4.6 2.1-4.6 4.6zm83-4.6c-2.5 0-4.6 2.1-4.6 4.6s2.1 4.6 4.6 4.6H234c2.5 0 4.6-2.1 4.6-4.6s-2.1-4.6-4.6-4.6h-26.2zm35.3 4.6c0 2.5 2.1 4.6 4.6 4.6h26.2c2.5 0 4.6-2.1 4.6-4.6s-2.1-4.6-4.6-4.6h-26.2c-2.5 0-4.6 2.1-4.6 4.6zm-79 17.6c0 2.5 2.1 4.6 4.6 4.6h47.5c2.5 0 4.6-2.1 4.6-4.6s-2.1-4.6-4.6-4.6h-47.5c-2.6.1-4.6 2.1-4.6 4.6zm110.4-4.5h-44.6c-2.5 0-4.6 2.1-4.6 4.6s2.1 4.6 4.6 4.6h44.6c2.5 0 4.6-2.1 4.6-4.6 0-2.6-2-4.6-4.6-4.6zM135.8 70.4h-31c-2.5 0-4.6 2.1-4.6 4.6s2.1 4.6 4.6 4.6h31c2.5 0 4.6-2.1 4.6-4.6s-2-4.6-4.6-4.6zm124.1 0H149.6c-2.5 0-4.6 2.1-4.6 4.6s2.1 4.6 4.6 4.6H260c2.5 0 4.6-2.1 4.6-4.6s-2.1-4.6-4.7-4.6zM4.6 115.1h39.7c2.5 0 4.6-2.1 4.6-4.6s-2.1-4.6-4.6-4.6H4.6c-2.5 0-4.6 2.1-4.6 4.6s2.1 4.6 4.6 4.6zm41.3 13c0 2.5 2.1 4.6 4.6 4.6h91c2.5 0 4.6-2.1 4.6-4.6s-2.1-4.6-4.6-4.6h-91c-2.6 0-4.6 2.1-4.6 4.6zm109.2 4.6H193c2.5 0 4.6-2.1 4.6-4.6s-2.1-4.6-4.6-4.6h-37.9c-2.5 0-4.6 2.1-4.6 4.6s2 4.6 4.6 4.6zm51.8 0h29c2.5 0 4.6-2.1 4.6-4.6s-2.1-4.6-4.6-4.6h-29c-2.5 0-4.6 2.1-4.6 4.6s2.1 4.6 4.6 4.6zm-112.1 13c0-2.5-2.1-4.6-4.6-4.6H50.4c-2.5 0-4.6 2.1-4.6 4.6s2.1 4.6 4.6 4.6h39.7c2.6 0 4.7-2 4.7-4.6zm4.6 0c0 2.5 2.1 4.6 4.6 4.6h170c2.5 0 4.6-2.1 4.6-4.6s-2.1-4.6-4.6-4.6H104c-2.6.1-4.6 2.1-4.6 4.6zM4.6 185.5h39.7c2.5 0 4.6-2.1 4.6-4.6s-2.1-4.6-4.6-4.6H4.6c-2.5 0-4.6 2.1-4.6 4.6s2.1 4.6 4.6 4.6zm41.3 13.1c0 2.5 2.1 4.6 4.6 4.6h63.4c2.5 0 4.6-2.1 4.6-4.6s-2.1-4.6-4.6-4.6H50.4c-2.5 0-4.5 2-4.5 4.6zm4.5 22.2h39.7c2.5 0 4.6-2.1 4.6-4.6s-2.1-4.6-4.6-4.6H50.4c-2.5 0-4.6 2.1-4.6 4.6s2.1 4.6 4.6 4.6zm0 17.6h39.7c2.5 0 4.6-2.1 4.6-4.6s-2.1-4.6-4.6-4.6H50.4c-2.5 0-4.6 2.1-4.6 4.6.1 2.5 2.1 4.6 4.6 4.6zm0 17.6h91c2.5 0 4.6-2.1 4.6-4.6s-2.1-4.6-4.6-4.6h-91c-2.5 0-4.6 2.1-4.6 4.6s2.1 4.6 4.6 4.6zM4.6 291.2h18.8c2.5 0 4.6-2.1 4.6-4.6s-2.1-4.6-4.6-4.6H4.6c-2.5 0-4.6 2.1-4.6 4.6s2.1 4.6 4.6 4.6zm27.9-4.6c0 2.5 2.1 4.6 4.6 4.6h49.7c2.5 0 4.6-2.1 4.6-4.6s-2.1-4.6-4.6-4.6H37.1c-2.5 0-4.6 2.1-4.6 4.6zM146 304.2c0-2.5-2.1-4.6-4.6-4.6h-91c-2.5 0-4.6 2.1-4.6 4.6s2.1 4.6 4.6 4.6h91c2.5 0 4.6-2 4.6-4.6zm-95.6 13c-2.5 0-4.6 2.1-4.6 4.6s2.1 4.6 4.6 4.6h64.5c2.5 0 4.6-2.1 4.6-4.6s-2.1-4.6-4.6-4.6H50.4zm108.4 22.2c0-2.5-2.1-4.6-4.6-4.6H50.4c-2.5 0-4.6 2.1-4.6 4.6s2.1 4.6 4.6 4.6h103.8c2.6 0 4.6-2 4.6-4.6zM4.6 379.2h100c2.5 0 4.6-2.1 4.6-4.6s-2.1-4.6-4.6-4.6H4.6c-2.5 0-4.6 2.1-4.6 4.6 0 2.6 2.1 4.6 4.6 4.6zm0 17.7h74c2.5 0 4.6-2.1 4.6-4.6s-2.1-4.6-4.6-4.6h-74c-2.5 0-4.6 2.1-4.6 4.6s2.1 4.6 4.6 4.6zM119 379.2h100c2.5 0 4.6-2.1 4.6-4.6s-2.1-4.6-4.6-4.6H119c-2.5 0-4.6 2.1-4.6 4.6 0 2.6 2 4.6 4.6 4.6zm-25.6 17.7h74c2.5 0 4.6-2.1 4.6-4.6s-2.1-4.6-4.6-4.6h-74c-2.5 0-4.6 2.1-4.6 4.6.1 2.5 2.1 4.6 4.6 4.6zM4.6 432.1h39.7c2.5 0 4.6-2.1 4.6-4.6s-2.1-4.6-4.6-4.6H4.6c-2.5 0-4.6 2.1-4.6 4.6s2.1 4.6 4.6 4.6zm132.2 13c0-2.5-2.1-4.6-4.6-4.6H50.4c-2.5 0-4.6 2.1-4.6 4.6s2.1 4.6 4.6 4.6h81.8c2.6 0 4.6-2.1 4.6-4.6zm-29.2 13H50.4c-2.5 0-4.6 2.1-4.6 4.6s2.1 4.6 4.6 4.6h57.2c2.5 0 4.6-2.1 4.6-4.6s-2.1-4.6-4.6-4.6zm12 4.6c0 2.5 2.1 4.6 4.6 4.6H206c2.5 0 4.6-2.1 4.6-4.6s-2.1-4.6-4.6-4.6h-81.8c-2.5 0-4.6 2.1-4.6 4.6zm29.3-13H206c2.5 0 4.6-2.1 4.6-4.6s-2.1-4.6-4.6-4.6h-57.2c-2.5 0-4.6 2.1-4.6 4.6.1 2.5 2.1 4.6 4.7 4.6zm121.8-4.6c0-2.5-2.1-4.6-4.6-4.6h-44.3c-2.5 0-4.6 2.1-4.6 4.6s2.1 4.6 4.6 4.6h44.3c2.5 0 4.6-2.1 4.6-4.6zm-29.2 13h-19.7c-2.5 0-4.6 2.1-4.6 4.6s2.1 4.6 4.6 4.6h19.7c2.5 0 4.6-2.1 4.6-4.6s-2.1-4.6-4.6-4.6zm-48.4-255c2.5 0 4.6-2.1 4.6-4.6s-2.1-4.6-4.6-4.6h-65.4c-2.5 0-4.6 2.1-4.6 4.6s2.1 4.6 4.6 4.6h65.4zm42.9 0c2.5 0 4.6-2.1 4.6-4.6s-2.1-4.6-4.6-4.6h-29c-2.5 0-4.6 2.1-4.6 4.6s2.1 4.6 4.6 4.6h29zm-15.5 43.7h-65.4c-2.5 0-4.6 2.1-4.6 4.6s2.1 4.6 4.6 4.6h65.4c2.5 0 4.6-2.1 4.6-4.6s-2.1-4.6-4.6-4.6zM99.2 216.2c0 2.5 2.1 4.6 4.6 4.6h65.4c2.5 0 4.6-2.1 4.6-4.6s-2.1-4.6-4.6-4.6h-65.4c-2.6 0-4.6 2-4.6 4.6zm175.2-4.6h-91.3c-2.5 0-4.6 2.1-4.6 4.6s2.1 4.6 4.6 4.6h91.3c2.5 0 4.6-2.1 4.6-4.6s-2-4.6-4.6-4.6zm-55.2 17.6H103.8c-2.5 0-4.6 2.1-4.6 4.6s2.1 4.6 4.6 4.6h115.4c2.5 0 4.6-2.1 4.6-4.6s-2.1-4.6-4.6-4.6zm54.7 0H233c-2.5 0-4.6 2.1-4.6 4.6s2.1 4.6 4.6 4.6h40.9c2.5 0 4.6-2.1 4.6-4.6s-2.1-4.6-4.6-4.6zM193 308.8c2.5 0 4.6-2.1 4.6-4.6s-2.1-4.6-4.6-4.6h-37.9c-2.5 0-4.6 2.1-4.6 4.6s2.1 4.6 4.6 4.6H193zm70.5-9.2H207c-2.5 0-4.6 2.1-4.6 4.6s2.1 4.6 4.6 4.6h56.5c2.5 0 4.6-2.1 4.6-4.6-.1-2.5-2.1-4.6-4.6-4.6zm-134.8 26.8h64.5c2.5 0 4.6-2.1 4.6-4.6s-2.1-4.6-4.6-4.6h-64.5c-2.5 0-4.6 2.1-4.6 4.6s2.1 4.6 4.6 4.6zm78.4-9.2c-2.5 0-4.6 2.1-4.6 4.6s2.1 4.6 4.6 4.6h26.2c2.5 0 4.6-2.1 4.6-4.6s-2.1-4.6-4.6-4.6h-26.2zm35.3 4.6c0 2.5 2.1 4.6 4.6 4.6h26.2c2.5 0 4.6-2.1 4.6-4.6s-2.1-4.6-4.6-4.6H247c-2.5 0-4.6 2.1-4.6 4.6zm-22.3 17.6c0-2.5-2.1-4.6-4.6-4.6H168c-2.5 0-4.6 2.1-4.6 4.6s2.1 4.6 4.6 4.6h47.5c2.5 0 4.6-2 4.6-4.6zm58.4 0c0-2.5-2.1-4.6-4.6-4.6h-44.6c-2.5 0-4.6 2.1-4.6 4.6s2.1 4.6 4.6 4.6h44.6c2.5 0 4.6-2 4.6-4.6z"/></svg>
