<?xml version="1.0" encoding="utf-8"?>
<!-- Generator: Adobe Illustrator 19.2.1, SVG Export Plug-In . SVG Version: 6.00 Build 0)  -->
<svg version="1.1" id="Layer_1" xmlns="http://www.w3.org/2000/svg" xmlns:xlink="http://www.w3.org/1999/xlink" x="0px" y="0px"
	 viewBox="0 0 741 684" style="enable-background:new 0 0 741 684;" xml:space="preserve">
<style type="text/css">
	.st0{opacity:5.000000e-02;fill:#FFFFFF;enable-background:new    ;}
	.st1{opacity:5.000000e-02;}
	.st2{fill:#FFFFFF;}
</style>
<path class="st0" d="M427.9,348.3H315.1c-2.3,0-4.2,1.9-4.2,4.2v113.7c0,2.3,1.9,4.2,4.2,4.2h112.8c2.3,0,4.2-1.9,4.2-4.2V352.5
	C432.1,350.2,430.2,348.3,427.9,348.3L427.9,348.3z M423.7,462H319.3V356.8h104.4L423.7,462L423.7,462z M719,544.7l-59.3-59.3
	c-0.8-0.8-1.9-1.2-3-1.2s-2.2,0.4-3,1.2l-58.8,58.8c-1.7,1.7-1.7,4.3,0,6l59.3,59.3c0.8,0.8,1.9,1.2,3,1.2s2.2-0.4,3-1.2l58.8-58.8
	C720.6,549,720.6,546.3,719,544.7z M657.1,600.5l-53.3-53.3l52.8-52.8l53.3,53.3L657.1,600.5z M578.9,278.1c2.3,0,4.2-1.9,4.2-4.2
	V160.1c0-2.3-1.9-4.2-4.2-4.2H466c-2.3,0-4.2,1.9-4.2,4.2v113.7c0,2.3,1.9,4.2,4.2,4.2h112.9V278.1z M470.3,164.4h104.4v105.3H470.3
	V164.4z M596.3,352.5v81.2c0,2.3,1.9,4.2,4.2,4.2h112.8c2.3,0,4.2-1.9,4.2-4.2v-81.2c0-2.3-1.9-4.2-4.2-4.2H600.5
	C598.2,348.3,596.3,350.2,596.3,352.5z M604.7,356.8h104.4v72.8H604.7V356.8z M427.9,564.9H315.1c-2.3,0-4.2,1.9-4.2,4.2v81.2
	c0,2.3,1.9,4.2,4.2,4.2h112.8c2.3,0,4.2-1.9,4.2-4.2v-81.2C432.1,566.8,430.2,564.9,427.9,564.9L427.9,564.9z M423.7,646.1H319.3
	v-72.8h104.4V646.1z M580.7,348.3H467.9c-2.3,0-4.2,1.9-4.2,4.2v48.7c0,2.3,1.9,4.2,4.2,4.2h112.8c2.3,0,4.2-1.9,4.2-4.2v-48.7
	C584.9,350.2,583,348.3,580.7,348.3z M576.4,397H472.1v-40.3h104.4L576.4,397L576.4,397z M434.7,75.5l-59.3-59.3
	c-0.8-0.8-1.9-1.2-3-1.2s-2.2,0.4-3,1.2L310.6,75c-1.7,1.7-1.7,4.3,0,6l59.3,59.3c0.8,0.8,1.9,1.2,3,1.2s2.2-0.4,3-1.2l58.8-58.8
	C436.4,79.9,436.4,77.2,434.7,75.5L434.7,75.5z M372.9,131.4l-53.3-53.3l52.8-52.8l53.3,53.3L372.9,131.4z M314,277.2h112.8
	c2.3,0,4.2-1.9,4.2-4.2v-48.7c0-2.3-1.9-4.2-4.2-4.2H314c-2.3,0-4.2,1.9-4.2,4.2V273C309.8,275.3,311.6,277.2,314,277.2z
	 M318.2,228.4h104.4v40.3H318.2V228.4z M468,655.7h112.8c2.3,0,4.2-1.9,4.2-4.2v-48.7c0-2.3-1.9-4.2-4.2-4.2H468
	c-2.3,0-4.2,1.9-4.2,4.2v48.7C463.8,653.8,465.7,655.7,468,655.7z M472.3,606.9h104.4v40.3H472.3V606.9z M580.7,413.3H467.9
	c-2.3,0-4.2,1.9-4.2,4.2v48.7c0,2.3,1.9,4.2,4.2,4.2h112.8c2.3,0,4.2-1.9,4.2-4.2v-48.7C584.9,415.2,583,413.3,580.7,413.3z
	 M576.4,462H472.1v-40.3h104.4L576.4,462L576.4,462z M714.7,15.1H601.9c-2.3,0-4.2,1.9-4.2,4.2V68c0,2.3,1.9,4.2,4.2,4.2h112.8
	c2.3,0,4.2-1.9,4.2-4.2V19.3C718.9,16.9,717,15.1,714.7,15.1z M710.4,63.8H606.1V23.5h104.4L710.4,63.8L710.4,63.8z M714.7,80H601.9
	c-2.3,0-4.2,1.9-4.2,4.2V133c0,2.3,1.9,4.2,4.2,4.2h112.8c2.3,0,4.2-1.9,4.2-4.2V84.3C718.9,81.9,717,80,714.7,80z M710.4,128.8
	H606.1V88.5h104.4L710.4,128.8L710.4,128.8z M713.3,445.8H600.5c-2.3,0-4.2,1.9-4.2,4.2v16.2c0,2.3,1.9,4.2,4.2,4.2h112.8
	c2.3,0,4.2-1.9,4.2-4.2V450C717.5,447.7,715.7,445.8,713.3,445.8z M709.1,462H604.7v-7.8h104.4L709.1,462L709.1,462z M520.1,287.9
	c-2.3,0-4.2,1.9-4.2,4.2V325l-5.5-5.5c-1.7-1.7-4.3-1.7-6,0s-1.7,4.3,0,6l12.7,12.7c0.8,0.8,1.9,1.2,3,1.2s2.2-0.4,3-1.2l12.8-12.8
	c1.7-1.7,1.7-4.3,0-6s-4.3-1.7-6,0l-5.5,5.5v-32.8C524.3,289.8,522.4,287.9,520.1,287.9L520.1,287.9z M371.9,287.9
	c-2.3,0-4.2,1.9-4.2,4.2V325l-5.5-5.5c-1.7-1.7-4.3-1.7-6,0s-1.7,4.3,0,6l12.7,12.7c0.8,0.8,1.9,1.2,3,1.2s2.2-0.4,3-1.2l12.8-12.8
	c1.7-1.7,1.7-4.3,0-6s-4.3-1.7-6,0l-5.5,5.5v-32.8C376.1,289.8,374.3,287.9,371.9,287.9L371.9,287.9z M371.9,158.8
	c-2.3,0-4.2,1.9-4.2,4.2v32.8l-5.5-5.5c-1.7-1.7-4.3-1.7-6,0s-1.7,4.3,0,6l12.7,12.7c0.8,0.8,1.9,1.2,3,1.2s2.2-0.4,3-1.2l12.8-12.8
	c1.7-1.7,1.7-4.3,0-6s-4.3-1.7-6,0l-5.5,5.5V163C376.1,160.7,374.3,158.8,371.9,158.8z M531,73.6h-65.4c-2.3,0-4.2,1.9-4.2,4.2
	s1.9,4.2,4.2,4.2H531 M371.5,482.7c-2.3,0-4.2,1.9-4.2,4.2v50.5l-5.5-5.5c-1.7-1.7-4.3-1.7-6,0s-1.7,4.3,0,6l12.7,12.7
	c0.8,0.8,1.9,1.2,3,1.2s2.2-0.4,3-1.2l12.8-12.8c1.7-1.7,1.7-4.3,0-6s-4.3-1.7-6,0l-5.5,5.5v-50.5
	C375.7,484.6,373.8,482.7,371.5,482.7L371.5,482.7z M612.7,231.8c1.1,0,2.2-0.4,3-1.2c1.7-1.7,1.7-4.3,0-6l-5.5-5.5H654v106
	l-5.6-5.6c-1.7-1.7-4.3-1.7-6,0s-1.7,4.3,0,6l12.7,12.7c0.8,0.8,1.9,1.2,3,1.2s2.2-0.4,3-1.2l12.8-12.8c1.7-1.7,1.7-4.3,0-6
	s-4.3-1.7-6,0l-5.5,5.5V214.8c0-2.3-1.9-4.2-4.2-4.2h-48.1l5.5-5.5c1.7-1.7,1.7-4.3,0-6s-4.3-1.7-6,0l-12.7,12.7
	c-1.7,1.7-1.7,4.3,0,6l12.8,12.8C610.5,231.3,611.6,231.8,612.7,231.8z M658.2,623c-2.3,0-4.2,1.9-4.2,4.2V660l-5.5-5.5
	c-1.7-1.7-4.3-1.7-6,0c-1.7,1.7-1.7,4.3,0,6l12.7,12.7c0.8,0.8,1.9,1.2,3,1.2c1.1,0,2.2-0.4,3-1.2l12.8-12.8c1.7-1.7,1.7-4.3,0-6
	c-1.7-1.7-4.3-1.7-6,0l-5.5,5.5v-32.7C662.5,624.9,660.7,623,658.2,623z"/>
<path class="st0" d="M539.9,123.3c0-1.1-0.4-2.2-1.2-3c-1.7-1.7-4.3-1.7-6,0l-5.5,5.5V81.9h41.1l-5.6,5.6c-1.7,1.7-1.7,4.3,0,6
	s4.3,1.7,6,0l12.7-12.7c0.8-0.8,1.2-1.9,1.2-3s-0.4-2.2-1.2-3L568.6,62c-1.7-1.7-4.3-1.7-6,0s-1.7,4.3,0,6l5.5,5.5h-45.2
	c-2.3,0-4.2,1.9-4.2,4.2v48.1l-5.5-5.5c-1.7-1.7-4.3-1.7-6,0s-1.7,4.3,0,6l12.7,12.7c1.7,1.7,4.3,1.7,6,0l12.8-12.8
	C539.5,125.4,539.9,124.3,539.9,123.3L539.9,123.3z M562.9,531.9c-1.7-1.7-4.3-1.7-6,0s-1.7,4.3,0,6l5.5,5.5h-38.1v-46.3l5.5,5.5
	c1.7,1.7,4.3,1.7,6,0s1.7-4.3,0-6l-12.7-12.7c-1.7-1.7-4.3-1.7-6,0l-12.8,12.8c-1.7,1.7-1.7,4.3,0,6c0.8,0.8,1.9,1.2,3,1.2
	s2.2-0.4,3-1.2l5.5-5.5v49.7c-0.1,0.3-0.1,0.6-0.1,0.9c0,2.3,1.9,4.2,4.2,4.2h42.4l-5.5,5.5c-1.7,1.7-1.7,4.3,0,6
	c0.8,0.8,1.9,1.2,3,1.2s2.2-0.4,3-1.2l12.7-12.7c1.7-1.7,1.7-4.3,0-6L562.9,531.9L562.9,531.9z"/>
<g class="st1">
	<path class="st2" d="M5.2,502.8h100c2.5,0,4.6-2.1,4.6-4.6s-2.1-4.6-4.6-4.6H5.2c-2.5,0-4.6,2.1-4.6,4.6S2.7,502.8,5.2,502.8z
		 M5.2,520.4h74c2.5,0,4.6-2.1,4.6-4.6s-2.1-4.6-4.6-4.6h-74c-2.5,0-4.6,2.1-4.6,4.6S2.7,520.4,5.2,520.4z M96.4,520.4h74
		c2.5,0,4.6-2.1,4.6-4.6s-2.1-4.6-4.6-4.6h-74c-2.5,0-4.6,2.1-4.6,4.6S93.8,520.4,96.4,520.4z M5.2,555.6H45c2.5,0,4.6-2.1,4.6-4.6
		s-2.1-4.6-4.6-4.6H5.2c-2.5,0-4.6,2.1-4.6,4.6S2.7,555.6,5.2,555.6z M46.5,568.6c0,2.5,2.1,4.6,4.6,4.6h81.8c2.5,0,4.6-2.1,4.6-4.6
		s-2.1-4.6-4.6-4.6H51.1C48.5,564,46.5,566.1,46.5,568.6z M108.2,581.6H51.1c-2.5,0-4.6,2.1-4.6,4.6s2.1,4.6,4.6,4.6h57.2
		c2.5,0,4.6-2.1,4.6-4.6C112.8,583.7,110.8,581.6,108.2,581.6z M49.5,621.4c0-2.5-2.1-4.6-4.6-4.6H5.2c-2.5,0-4.6,2.1-4.6,4.6
		s2.1,4.6,4.6,4.6H45C47.5,626,49.5,624,49.5,621.4z M142,634.5H51c-2.5,0-4.6,2.1-4.6,4.6s2.1,4.6,4.6,4.6h91
		c2.5,0,4.6-2.1,4.6-4.6S144.6,634.5,142,634.5z M51.1,652.1c-2.5,0-4.6,2.1-4.6,4.6s2.1,4.6,4.6,4.6h64.2c2.5,0,4.6-2.1,4.6-4.6
		s-2.1-4.6-4.6-4.6H51.1z M146.6,573.2h47c2.5,0,4.6-2.1,4.6-4.6s-2.1-4.6-4.6-4.6h-47c-2.5,0-4.6,2.1-4.6,4.6
		S144.1,573.2,146.6,573.2z M207.6,573.2h29c2.5,0,4.6-2.1,4.6-4.6s-2.1-4.6-4.6-4.6h-29c-2.5,0-4.6,2.1-4.6,4.6
		S205,573.2,207.6,573.2z M276.1,581.6H122c-2.5,0-4.6,2.1-4.6,4.6s2.1,4.6,4.6,4.6h154.1c2.5,0,4.6-2.1,4.6-4.6
		S278.7,581.6,276.1,581.6z M193.6,643.7c2.5,0,4.6-2.1,4.6-4.6s-2.1-4.6-4.6-4.6h-37.9c-2.5,0-4.6,2.1-4.6,4.6s2.1,4.6,4.6,4.6
		H193.6z M264.1,634.5h-56.5c-2.5,0-4.6,2.1-4.6,4.6s2.1,4.6,4.6,4.6h56.5c2.5,0,4.6-2.1,4.6-4.6S266.6,634.5,264.1,634.5z
		 M124.8,656.7c0,2.5,2.1,4.6,4.6,4.6h64.5c2.5,0,4.6-2.1,4.6-4.6s-2.1-4.6-4.6-4.6h-64.5C126.8,652.1,124.8,654.1,124.8,656.7z
		 M207.8,652.1c-2.5,0-4.6,2.1-4.6,4.6s2.1,4.6,4.6,4.6H234c2.5,0,4.6-2.1,4.6-4.6s-2.1-4.6-4.6-4.6H207.8z M243.1,656.7
		c0,2.5,2.1,4.6,4.6,4.6h26.2c2.5,0,4.6-2.1,4.6-4.6s-2.1-4.6-4.6-4.6h-26.2C245.2,652.1,243.1,654.1,243.1,656.7L243.1,656.7z"/>
</g>
<g class="st1">
	<path class="st2" d="M49.5,4.6c0-2.5-2-4.6-4.5-4.6H5.2C2.7,0,0.6,2.1,0.6,4.6s2.1,4.6,4.6,4.6H45C47.5,9.2,49.5,7.1,49.5,4.6z
		 M142,17.6H51c-2.5,0-4.6,2.1-4.6,4.6s2.1,4.6,4.6,4.6h91c2.5,0,4.6-2.1,4.6-4.6S144.6,17.6,142,17.6z M51.1,35.2
		c-2.5,0-4.6,2.1-4.6,4.6s2.1,4.6,4.6,4.6h64.2c2.5,0,4.6-2.1,4.6-4.6s-2.1-4.6-4.6-4.6H51.1z M90.8,52.8H51.1
		c-2.5,0-4.6,2.1-4.6,4.6s2.1,4.6,4.6,4.6h39.7c2.5,0,4.6-2.1,4.6-4.6S93.3,52.8,90.8,52.8z M90.8,70.4H51.1c-2.5,0-4.6,2.1-4.6,4.6
		s2.1,4.6,4.6,4.6h39.7c2.5,0,4.6-2.1,4.6-4.6S93.3,70.4,90.8,70.4z M104.6,62h50.3c2.5,0,4.6-2.1,4.6-4.6s-2.1-4.6-4.6-4.6h-50.3
		c-2.5,0-4.6,2.1-4.6,4.6C100,60,102.1,62,104.6,62z M193.6,26.8c2.5,0,4.6-2.1,4.6-4.6s-2.1-4.6-4.6-4.6h-37.9
		c-2.5,0-4.6,2.1-4.6,4.6s2.1,4.6,4.6,4.6H193.6z M264.1,17.6h-56.5c-2.5,0-4.6,2.1-4.6,4.6s2.1,4.6,4.6,4.6h56.5
		c2.5,0,4.6-2.1,4.6-4.6S266.6,17.6,264.1,17.6z M124.8,39.8c0,2.5,2.1,4.6,4.6,4.6h64.5c2.5,0,4.6-2.1,4.6-4.6s-2.1-4.6-4.6-4.6
		h-64.5C126.8,35.2,124.8,37.3,124.8,39.8z M207.8,35.2c-2.5,0-4.6,2.1-4.6,4.6s2.1,4.6,4.6,4.6H234c2.5,0,4.6-2.1,4.6-4.6
		s-2.1-4.6-4.6-4.6H207.8z M243.1,39.8c0,2.5,2.1,4.6,4.6,4.6h26.2c2.5,0,4.6-2.1,4.6-4.6s-2.1-4.6-4.6-4.6h-26.2
		C245.2,35.2,243.1,37.3,243.1,39.8L243.1,39.8z M164.1,57.4c0,2.5,2.1,4.6,4.6,4.6h47.5c2.5,0,4.6-2.1,4.6-4.6s-2.1-4.6-4.6-4.6
		h-47.5C166.1,52.9,164.1,54.9,164.1,57.4z M274.5,52.9h-44.6c-2.5,0-4.6,2.1-4.6,4.6s2.1,4.6,4.6,4.6h44.6c2.5,0,4.6-2.1,4.6-4.6
		C279.1,54.9,277.1,52.9,274.5,52.9z M135.8,70.4h-31c-2.5,0-4.6,2.1-4.6,4.6s2.1,4.6,4.6,4.6h31c2.5,0,4.6-2.1,4.6-4.6
		S138.4,70.4,135.8,70.4z M259.9,70.4H149.6c-2.5,0-4.6,2.1-4.6,4.6s2.1,4.6,4.6,4.6H260c2.5,0,4.6-2.1,4.6-4.6
		S262.5,70.4,259.9,70.4z"/>
</g>
<g class="st1">
	<path class="st2" d="M4.6,115.1h39.7c2.5,0,4.6-2.1,4.6-4.6s-2.1-4.6-4.6-4.6H4.6c-2.5,0-4.6,2.1-4.6,4.6S2.1,115.1,4.6,115.1z
		 M45.9,128.1c0,2.5,2.1,4.6,4.6,4.6h91c2.5,0,4.6-2.1,4.6-4.6s-2.1-4.6-4.6-4.6h-91C47.9,123.5,45.9,125.6,45.9,128.1z
		 M155.1,132.7H193c2.5,0,4.6-2.1,4.6-4.6s-2.1-4.6-4.6-4.6h-37.9c-2.5,0-4.6,2.1-4.6,4.6S152.5,132.7,155.1,132.7z M206.9,132.7h29
		c2.5,0,4.6-2.1,4.6-4.6s-2.1-4.6-4.6-4.6h-29c-2.5,0-4.6,2.1-4.6,4.6S204.4,132.7,206.9,132.7z M94.8,145.7c0-2.5-2.1-4.6-4.6-4.6
		H50.4c-2.5,0-4.6,2.1-4.6,4.6s2.1,4.6,4.6,4.6h39.7C92.7,150.3,94.8,148.3,94.8,145.7z M99.4,145.7c0,2.5,2.1,4.6,4.6,4.6h170
		c2.5,0,4.6-2.1,4.6-4.6s-2.1-4.6-4.6-4.6H104C101.4,141.2,99.4,143.2,99.4,145.7z M4.6,185.5h39.7c2.5,0,4.6-2.1,4.6-4.6
		s-2.1-4.6-4.6-4.6H4.6c-2.5,0-4.6,2.1-4.6,4.6S2.1,185.5,4.6,185.5z M45.9,198.6c0,2.5,2.1,4.6,4.6,4.6h63.4c2.5,0,4.6-2.1,4.6-4.6
		s-2.1-4.6-4.6-4.6H50.4C47.9,194,45.9,196,45.9,198.6z M50.4,220.8h39.7c2.5,0,4.6-2.1,4.6-4.6s-2.1-4.6-4.6-4.6H50.4
		c-2.5,0-4.6,2.1-4.6,4.6S47.9,220.8,50.4,220.8z M50.4,238.4h39.7c2.5,0,4.6-2.1,4.6-4.6s-2.1-4.6-4.6-4.6H50.4
		c-2.5,0-4.6,2.1-4.6,4.6C45.9,236.3,47.9,238.4,50.4,238.4z M50.4,256h91c2.5,0,4.6-2.1,4.6-4.6s-2.1-4.6-4.6-4.6h-91
		c-2.5,0-4.6,2.1-4.6,4.6S47.9,256,50.4,256z M4.6,291.2h18.8c2.5,0,4.6-2.1,4.6-4.6s-2.1-4.6-4.6-4.6H4.6c-2.5,0-4.6,2.1-4.6,4.6
		S2.1,291.2,4.6,291.2z M32.5,286.6c0,2.5,2.1,4.6,4.6,4.6h49.7c2.5,0,4.6-2.1,4.6-4.6s-2.1-4.6-4.6-4.6H37.1
		C34.6,282,32.5,284.1,32.5,286.6z M146,304.2c0-2.5-2.1-4.6-4.6-4.6h-91c-2.5,0-4.6,2.1-4.6,4.6s2.1,4.6,4.6,4.6h91
		C143.9,308.8,146,306.8,146,304.2z M50.4,317.2c-2.5,0-4.6,2.1-4.6,4.6s2.1,4.6,4.6,4.6h64.5c2.5,0,4.6-2.1,4.6-4.6
		s-2.1-4.6-4.6-4.6H50.4z M158.8,339.4c0-2.5-2.1-4.6-4.6-4.6H50.4c-2.5,0-4.6,2.1-4.6,4.6s2.1,4.6,4.6,4.6h103.8
		C156.8,344,158.8,342,158.8,339.4L158.8,339.4z M4.6,379.2h100c2.5,0,4.6-2.1,4.6-4.6s-2.1-4.6-4.6-4.6H4.6c-2.5,0-4.6,2.1-4.6,4.6
		C0,377.2,2.1,379.2,4.6,379.2z M4.6,396.9h74c2.5,0,4.6-2.1,4.6-4.6s-2.1-4.6-4.6-4.6h-74c-2.5,0-4.6,2.1-4.6,4.6
		S2.1,396.9,4.6,396.9z M119,379.2h100c2.5,0,4.6-2.1,4.6-4.6s-2.1-4.6-4.6-4.6H119c-2.5,0-4.6,2.1-4.6,4.6
		C114.4,377.2,116.4,379.2,119,379.2z M93.4,396.9h74c2.5,0,4.6-2.1,4.6-4.6s-2.1-4.6-4.6-4.6h-74c-2.5,0-4.6,2.1-4.6,4.6
		C88.9,394.8,90.9,396.9,93.4,396.9z M4.6,432.1h39.7c2.5,0,4.6-2.1,4.6-4.6s-2.1-4.6-4.6-4.6H4.6c-2.5,0-4.6,2.1-4.6,4.6
		S2.1,432.1,4.6,432.1z M136.8,445.1c0-2.5-2.1-4.6-4.6-4.6H50.4c-2.5,0-4.6,2.1-4.6,4.6s2.1,4.6,4.6,4.6h81.8
		C134.8,449.7,136.8,447.6,136.8,445.1L136.8,445.1z M107.6,458.1H50.4c-2.5,0-4.6,2.1-4.6,4.6s2.1,4.6,4.6,4.6h57.2
		c2.5,0,4.6-2.1,4.6-4.6S110.1,458.1,107.6,458.1z M119.6,462.7c0,2.5,2.1,4.6,4.6,4.6H206c2.5,0,4.6-2.1,4.6-4.6s-2.1-4.6-4.6-4.6
		h-81.8C121.7,458.1,119.6,460.2,119.6,462.7z M148.9,449.7H206c2.5,0,4.6-2.1,4.6-4.6s-2.1-4.6-4.6-4.6h-57.2
		c-2.5,0-4.6,2.1-4.6,4.6C144.3,447.6,146.3,449.7,148.9,449.7z M270.7,445.1c0-2.5-2.1-4.6-4.6-4.6h-44.3c-2.5,0-4.6,2.1-4.6,4.6
		s2.1,4.6,4.6,4.6h44.3C268.6,449.7,270.7,447.6,270.7,445.1z M241.5,458.1h-19.7c-2.5,0-4.6,2.1-4.6,4.6s2.1,4.6,4.6,4.6h19.7
		c2.5,0,4.6-2.1,4.6-4.6S244,458.1,241.5,458.1z M193.1,203.1c2.5,0,4.6-2.1,4.6-4.6s-2.1-4.6-4.6-4.6h-65.4c-2.5,0-4.6,2.1-4.6,4.6
		s2.1,4.6,4.6,4.6H193.1z M236,203.1c2.5,0,4.6-2.1,4.6-4.6s-2.1-4.6-4.6-4.6h-29c-2.5,0-4.6,2.1-4.6,4.6s2.1,4.6,4.6,4.6H236z
		 M220.5,246.8h-65.4c-2.5,0-4.6,2.1-4.6,4.6s2.1,4.6,4.6,4.6h65.4c2.5,0,4.6-2.1,4.6-4.6S223,246.8,220.5,246.8L220.5,246.8z
		 M99.2,216.2c0,2.5,2.1,4.6,4.6,4.6h65.4c2.5,0,4.6-2.1,4.6-4.6s-2.1-4.6-4.6-4.6h-65.4C101.2,211.6,99.2,213.6,99.2,216.2z
		 M274.4,211.6h-91.3c-2.5,0-4.6,2.1-4.6,4.6s2.1,4.6,4.6,4.6h91.3c2.5,0,4.6-2.1,4.6-4.6S277,211.6,274.4,211.6z M219.2,229.2
		H103.8c-2.5,0-4.6,2.1-4.6,4.6s2.1,4.6,4.6,4.6h115.4c2.5,0,4.6-2.1,4.6-4.6S221.7,229.2,219.2,229.2L219.2,229.2z M273.9,229.2
		H233c-2.5,0-4.6,2.1-4.6,4.6s2.1,4.6,4.6,4.6h40.9c2.5,0,4.6-2.1,4.6-4.6S276.4,229.2,273.9,229.2z M193,308.8
		c2.5,0,4.6-2.1,4.6-4.6s-2.1-4.6-4.6-4.6h-37.9c-2.5,0-4.6,2.1-4.6,4.6s2.1,4.6,4.6,4.6H193z M263.5,299.6H207
		c-2.5,0-4.6,2.1-4.6,4.6s2.1,4.6,4.6,4.6h56.5c2.5,0,4.6-2.1,4.6-4.6C268,301.7,266,299.6,263.5,299.6z M128.7,326.4h64.5
		c2.5,0,4.6-2.1,4.6-4.6s-2.1-4.6-4.6-4.6h-64.5c-2.5,0-4.6,2.1-4.6,4.6S126.2,326.4,128.7,326.4z M207.1,317.2
		c-2.5,0-4.6,2.1-4.6,4.6s2.1,4.6,4.6,4.6h26.2c2.5,0,4.6-2.1,4.6-4.6s-2.1-4.6-4.6-4.6H207.1z M242.4,321.8c0,2.5,2.1,4.6,4.6,4.6
		h26.2c2.5,0,4.6-2.1,4.6-4.6s-2.1-4.6-4.6-4.6H247C244.5,317.2,242.4,319.3,242.4,321.8z M220.1,339.4c0-2.5-2.1-4.6-4.6-4.6H168
		c-2.5,0-4.6,2.1-4.6,4.6s2.1,4.6,4.6,4.6h47.5C218,344,220.1,342,220.1,339.4z M278.5,339.4c0-2.5-2.1-4.6-4.6-4.6h-44.6
		c-2.5,0-4.6,2.1-4.6,4.6s2.1,4.6,4.6,4.6h44.6C276.4,344,278.5,342,278.5,339.4z"/>
</g>
</svg>
