<svg id="Layer_1" data-name="Layer 1" xmlns="http://www.w3.org/2000/svg" viewBox="0 0 372.32 283.3"><defs><style>.cls-1{fill:#fff;}</style></defs><title>vs-logo-v-white</title><path class="cls-1" d="M301,284.66a0.86,0.86,0,0,1-.76-0.39c-0.23-.39-0.26-0.73-0.26-3.21V269.81a22.19,22.19,0,0,0-.19-3.75l-3.86.87a37.55,37.55,0,0,1,.19,4.34V282a7.78,7.78,0,0,0,.34,3.24,3.38,3.38,0,0,0,3.36,2,6.31,6.31,0,0,0,2.25-.39l-0.65-2.25A1.38,1.38,0,0,1,301,284.66Zm-219.13-5.6a3.85,3.85,0,0,0,.82-2.4,3.9,3.9,0,0,0-1.32-3,4.46,4.46,0,0,0-3.16-1.23H74a1.18,1.18,0,0,0-1.18,1.19v12A1.17,1.17,0,0,0,74,286.81a1.18,1.18,0,0,0,1.19-1.18v-4.79h2l2.66,5.4a1.09,1.09,0,0,0,1.05.66,1.19,1.19,0,0,0,.52-0.12A1.2,1.2,0,0,0,82,285.2l-2.28-4.62A4.32,4.32,0,0,0,81.86,279.06Zm-2.13-1.14a2.27,2.27,0,0,1-1.45.55H75.23v-3.65h3a2.23,2.23,0,0,1,1.5.53A1.65,1.65,0,0,1,79.73,277.92Zm16.9-3.05h0a1.2,1.2,0,0,0,1.19-1.19,1.17,1.17,0,0,0-.34-0.84,1.15,1.15,0,0,0-.84-0.35l-7.26,0h0a1.12,1.12,0,0,0-.83.35,1.13,1.13,0,0,0-.35.84v12a1.2,1.2,0,0,0,1.19,1.19h7.27a1.2,1.2,0,0,0,1.19-1.19,1.15,1.15,0,0,0-.35-0.84,1.12,1.12,0,0,0-.83-0.35H90.56v-3.65h4.38a1.17,1.17,0,0,0,.84-0.34,1.19,1.19,0,0,0,0-1.69,1.17,1.17,0,0,0-.84-0.34H90.56v-3.65Zm10.6,3.65h-0.05a2.86,2.86,0,0,1-2.09-.67,1.28,1.28,0,0,1-.37-0.94,2,2,0,0,1,.71-1.45,2.4,2.4,0,0,1,1.63-.59,3.85,3.85,0,0,1,1.64.33,1.67,1.67,0,0,1,1,1.05,1.14,1.14,0,0,0,.54.72,1.16,1.16,0,0,0,.89.12,1.11,1.11,0,0,0,.71-0.54,1.14,1.14,0,0,0,.13-0.89,3.81,3.81,0,0,0-2-2.45,6.06,6.06,0,0,0-2.93-.7,4.65,4.65,0,0,0-3.26,1.25,4.26,4.26,0,0,0-1.44,3.05,3.52,3.52,0,0,0,1,2.66,5.07,5.07,0,0,0,3.77,1.42h0.05a2.83,2.83,0,0,1,2.09.68,1.25,1.25,0,0,1,.37.93,2,2,0,0,1-.72,1.45,2.36,2.36,0,0,1-1.62.59,3.91,3.91,0,0,1-1.65-.33,1.67,1.67,0,0,1-1-1.05,1.14,1.14,0,0,0-.54-0.72,1.16,1.16,0,0,0-.89-0.12,1.14,1.14,0,0,0-.72.54,1.16,1.16,0,0,0-.12.89,3.81,3.81,0,0,0,2,2.45,6.06,6.06,0,0,0,2.93.7,4.67,4.67,0,0,0,3.26-1.25,4.25,4.25,0,0,0,1.44-3,3.5,3.5,0,0,0-1-2.66A5,5,0,0,0,107.22,278.52Zm36-6a1.15,1.15,0,0,0-.84.35,1.13,1.13,0,0,0-.34.83v8.58l-7.22-9.3a1.16,1.16,0,0,0-.59-0.41,1.11,1.11,0,0,0-.72,0,1.14,1.14,0,0,0-.58.43,1.12,1.12,0,0,0-.22.68v12a1.19,1.19,0,0,0,2.37,0v-8.57l7.22,9.29h0l0,0,0,0h0l0.09,0.08,0,0,0.07,0.05,0,0,0.07,0,0,0,0.08,0,0,0,0.08,0h0l0.1,0h0.35l0.17,0h0l0.16-.07h0l0.15-.1h0l0.05,0,0,0,0,0,0,0,0,0,0-.06,0,0,0-.06,0-.05,0-.05,0-.06,0-.05a0.15,0.15,0,0,0,0-.06V286a0.14,0.14,0,0,0,0-.06,0.27,0.27,0,0,0,0-.07v0a0.27,0.27,0,0,0,0-.06V273.67A1.2,1.2,0,0,0,143.19,272.49Zm-19.53-21.26a0.15,0.15,0,0,1,.05.08l0.1,0.18a0,0,0,0,0,0,0v0l0.2,0.2,0.05,0.05,0.15,0.1,0.08,0.05,0.2,0.1a0,0,0,0,1,0,0s0,0,0,0l0.18,0.05h0.08l0.23,0,0.25,0h0.08l0.15-.05s0,0,0,0a0,0,0,0,1,0,0h0l0.18-.1,0.08-.05,0.18-.1,0.05-.05a1.74,1.74,0,0,0,.18-0.2l0,0v0a0.65,0.65,0,0,0,.13-0.18,0.19,0.19,0,0,1,0-.08,0.16,0.16,0,0,1,.05-0.1l11.64-33.19a1.54,1.54,0,0,0-.05-1.16,1.45,1.45,0,0,0-.88-0.78l-0.58-.2-0.55.28a1.45,1.45,0,0,0-.78.86l-10.23,29.13-10.23-29.13c0,0.05,0,0,0-.08a0.67,0.67,0,0,0-.08-0.15,0.44,0.44,0,0,0-.08-0.1,0.33,0.33,0,0,0-.08-0.13l-0.1-.1-0.1-.1-0.13-.1-0.13-.08L114,216l-0.05,0,0,0s0,0-.08,0l-0.15-.05a0.2,0.2,0,0,1-.13,0h-0.3a0.34,0.34,0,0,1-.15,0L113,216h0l-0.09,0-0.13.05-0.15.08-0.1.1-0.1.1a0.29,0.29,0,0,0-.1.1l-0.1.13a0.39,0.39,0,0,1-.08.1l-0.05.15C112,217,112,217,112,216.93l-10.23,29.13L91.53,216.93a1.57,1.57,0,0,0-.78-0.86,1.48,1.48,0,0,0-2,.71,1.4,1.4,0,0,0-.05,1.16l11.64,33.19a0.16,0.16,0,0,1,.05.1,0.19,0.19,0,0,1,0,.08l0.1,0.18,0,0a0,0,0,0,0,0,0,1.76,1.76,0,0,0,.18.2l0.05,0.05,0.15,0.1,0.08,0.05,0.2,0.1h0l0,0,0.18,0.05h0.08l0.23,0,0.25,0h0.08l0.15-.05s0,0,0,0l0,0h0l0.2-.1,0.08-.05,0.15-.1,0.05-.05a1.74,1.74,0,0,0,.18-0.2l0,0v0a0.66,0.66,0,0,0,.13-0.18,0.19,0.19,0,0,1,0-.08,0.16,0.16,0,0,1,.05-0.1L113.41,222l10.23,29.13A0.23,0.23,0,0,1,123.66,251.23Zm2.61,23.64h0a1.2,1.2,0,0,0,1.19-1.19,1.17,1.17,0,0,0-.34-0.84,1.15,1.15,0,0,0-.84-0.35l-7.26,0h0a1.12,1.12,0,0,0-.83.35,1.13,1.13,0,0,0-.35.84v12A1.2,1.2,0,0,0,119,286.9h7.27a1.2,1.2,0,0,0,1.19-1.19,1.15,1.15,0,0,0-.35-0.84,1.12,1.12,0,0,0-.83-0.35H120.2v-3.65h4.38a1.17,1.17,0,0,0,.84-0.34,1.19,1.19,0,0,0,0-1.69,1.17,1.17,0,0,0-.84-0.34H120.2v-3.65Zm138.36-96.26a2.44,2.44,0,0,0,3.38-.7L323.65,93a2.44,2.44,0,0,0,0-2.68L268,5.45a2.44,2.44,0,1,0-4.08,2.68l54.77,83.55-54.77,83.55A2.44,2.44,0,0,0,264.63,178.61Zm111,70.51h-18.5V235.55H371a1.51,1.51,0,0,0,0-3H357.17V219l18.5,0.05a1.43,1.43,0,0,0,1.06-.43,1.48,1.48,0,0,0,.45-1.08,1.45,1.45,0,0,0-.45-1.06,1.4,1.4,0,0,0-1.06-.45l-20-.05a1.34,1.34,0,0,0-1.06.45,1.4,1.4,0,0,0-.45,1.06v33.17a1.55,1.55,0,0,0,1.51,1.51h20A1.51,1.51,0,0,0,375.67,249.11ZM158.93,272.47h-8.35a1.15,1.15,0,0,0-.84.35,1.19,1.19,0,0,0,0,1.67,1.15,1.15,0,0,0,.84.35h3v10.87a1.15,1.15,0,0,0,.35.84,1.19,1.19,0,0,0,1.67,0,1.15,1.15,0,0,0,.35-0.84V274.84h3A1.19,1.19,0,0,0,158.93,272.47ZM30.14,216.07l-0.6-.2-0.55.28a1.37,1.37,0,0,0-.76.86L18,246.09,7.79,217A1.38,1.38,0,0,0,7,216.15a1.48,1.48,0,0,0-2,.71A1.34,1.34,0,0,0,5,218l11.62,33.14a0.17,0.17,0,0,1,.05.1,0.22,0.22,0,0,1,0,.08,0.66,0.66,0,0,0,.13.18v0l0,0a1.76,1.76,0,0,0,.18.2L17,251.79l0.15,0.1,0.08,0.05,0.2,0.1h0l0,0,0.18,0.05h0.08l0.23,0,0.25,0h0.08l0.15-.05s0,0,0,0l0,0h0l0.18-.1,0.1-.05,0.15-.1,0.05-.05,0.18-.2,0-.05a0.68,0.68,0,0,0,.13-0.18,0.19,0.19,0,0,1,0-.08c0-.1.05-0.13,0.05-0.1L31,218a1.48,1.48,0,0,0-.05-1.13A1.46,1.46,0,0,0,30.14,216.07Zm12.09,0a1.55,1.55,0,0,0-1.51,1.51v33a1.51,1.51,0,0,0,3,0v-33A1.55,1.55,0,0,0,42.24,216.1Zm20.94,56.36H59a1.2,1.2,0,0,0-1.19,1.19v12.07A1.2,1.2,0,0,0,59,286.9a1.15,1.15,0,0,0,.84-0.35,1.13,1.13,0,0,0,.34-0.83v-4.83h3.17a4.51,4.51,0,0,0,3.07-1.28,4,4,0,0,0-.05-5.91A4.49,4.49,0,0,0,63.17,272.46ZM64.7,278a2.21,2.21,0,0,1-1.46.55H60.17v-3.68h3a2.22,2.22,0,0,1,1.51.54A1.67,1.67,0,0,1,64.7,278Zm13.79-25.82a1.51,1.51,0,0,0,0-3H60V235.55H73.83a1.51,1.51,0,0,0,0-3H60V219L78.49,219a1.43,1.43,0,0,0,1.06-.43,1.48,1.48,0,0,0,.45-1.08,1.45,1.45,0,0,0-.45-1.06,1.4,1.4,0,0,0-1.06-.45l-20-.05a1.34,1.34,0,0,0-1.06.45,1.4,1.4,0,0,0-.45,1.06v33.17a1.55,1.55,0,0,0,1.51,1.51h20Zm178,0a12.39,12.39,0,0,0,12.37-12.37v-22.2a1.44,1.44,0,0,0-.43-1.06,1.49,1.49,0,0,0-1.06-.43,1.41,1.41,0,0,0-1,.43,1.44,1.44,0,0,0-.43,1.06v22.2a9.43,9.43,0,0,1-18.85,0v-22.2a1.44,1.44,0,0,0-.43-1.06,1.41,1.41,0,0,0-1-.43,1.46,1.46,0,0,0-1.49,1.49v22.2A12.39,12.39,0,0,0,256.44,252.14ZM114,177.9a2.44,2.44,0,1,0,4.08-2.68L63.35,91.68,118.12,8.13A2.44,2.44,0,1,0,114,5.45L58.4,90.34a2.44,2.44,0,0,0,0,2.68Zm77-135a48.81,48.81,0,1,0,48.81,48.81A48.87,48.87,0,0,0,191,42.86Zm0,92.74A43.93,43.93,0,1,1,235,91.68,44,44,0,0,1,191,135.61ZM214.84,216a18.07,18.07,0,1,0,12.78,5.29A17.41,17.41,0,0,0,214.84,216Zm10.64,28.71a15,15,0,1,1,4.44-10.64A14.49,14.49,0,0,1,225.48,244.7Zm43,27.5c-3.9,0-6.48,3-6.48,7.56s2.56,7.47,6.48,7.47a5.88,5.88,0,0,0,4.76-2,7.82,7.82,0,0,0,1.81-5.58,7.51,7.51,0,0,0-1.67-5.27A6,6,0,0,0,268.43,272.2Zm0.11,12.29a2.1,2.1,0,0,1-1.92-1.18,10.26,10.26,0,0,1-.48-3.64,10.15,10.15,0,0,1,.4-3.22,2.06,2.06,0,0,1,3.57-.71c0.5,0.65.76,1.92,0.76,3.87C270.87,283,270.17,284.49,268.54,284.49ZM303.6,250l-7.18-14.64a10.31,10.31,0,0,0,6.23-3.28,9.19,9.19,0,0,0-.55-13.18,10.64,10.64,0,0,0-7.46-2.85H283.21a1.49,1.49,0,0,0-1.06.43,1.44,1.44,0,0,0-.43,1.06V250.4a1.46,1.46,0,0,0,1.49,1.49,1.51,1.51,0,0,0,1.51-1.49V235.5h8.42l7.79,15.8a1.38,1.38,0,0,0,1.34.83,1.45,1.45,0,0,0,.66-0.15,1.47,1.47,0,0,0,.76-0.86A1.41,1.41,0,0,0,303.6,250Zm-18.88-17.49V219h9.9a7.73,7.73,0,0,1,5.34,2,6.22,6.22,0,0,1,.05,9.48,7.63,7.63,0,0,1-5.22,2H284.73Zm-26,40.63a4.49,4.49,0,0,0-2.85-.9,5.28,5.28,0,0,0-4.09,1.89,4.6,4.6,0,0,0-.57-0.71,3.88,3.88,0,0,0-2.93-1.18,5,5,0,0,0-3.52,1.46,3.67,3.67,0,0,0-.5-1.46l-3.42.93c0.4,0.71.54,1.61,0.54,3.69v10.06h3.69V276.4a4,4,0,0,1,2.48-1.1c1,0,1.31.42,1.31,2.22v9.39h3.58V276.54a4.29,4.29,0,0,1,2.51-1.21c1,0,1.19.33,1.19,2.06v9.52h3.67V276.66C259.84,274.68,259.58,273.84,258.76,273.13Zm32.5-7a2.36,2.36,0,0,0-2.37,2.34A2.32,2.32,0,1,0,291.26,266.17Zm-118,8.7h0a1.2,1.2,0,0,0,1.19-1.19,1.17,1.17,0,0,0-.34-0.84,1.15,1.15,0,0,0-.84-0.35l-7.26,0h0a1.12,1.12,0,0,0-.83.35,1.13,1.13,0,0,0-.35.84v12A1.2,1.2,0,0,0,166,286.9h7.27a1.2,1.2,0,0,0,1.19-1.19,1.15,1.15,0,0,0-.35-0.84,1.12,1.12,0,0,0-.83-0.35h-6.08v-3.65h4.38a1.17,1.17,0,0,0,.84-0.34,1.19,1.19,0,0,0,0-1.69,1.17,1.17,0,0,0-.84-0.34h-4.38v-3.65Zm116.08,12h3.78V272.15l-3.78.59v14.18Zm-2.17-11.84v-2.59H276.44v2.65h6.22l-6.79,9.44v2.34h10.62l0.9-2.62h-6.62Zm21.67,9.58a0.83,0.83,0,0,1-.75-0.39c-0.23-.39-0.26-0.73-0.26-3.21V269.81a20,20,0,0,0-.2-3.75l-3.86.87a36.17,36.17,0,0,1,.2,4.34V282c0,2.06,0,2.51.34,3.24a3.39,3.39,0,0,0,3.36,2,6.29,6.29,0,0,0,2.25-.39l-0.64-2.25A1.38,1.38,0,0,1,308.82,284.66Zm33.83-39.88a1.44,1.44,0,0,0-1.08.4,15.05,15.05,0,1,1-1-23.11,1.32,1.32,0,0,0,1.11.3,1.42,1.42,0,0,0,1-.58,1.44,1.44,0,0,0,.3-1.11,1.43,1.43,0,0,0-.58-1,17.59,17.59,0,0,0-11-3.76,18.11,18.11,0,1,0,12.2,31.5A1.53,1.53,0,0,0,342.65,244.78ZM188,242a7.88,7.88,0,0,0-2.29-6q-3.07-3.28-9.12-3.38l-0.08,0-0.07,0q-4.79-.08-7-2.42a5.06,5.06,0,0,1-1.51-3.86,7.2,7.2,0,0,1,2.52-5.19,8.22,8.22,0,0,1,5.67-2.12,12.19,12.19,0,0,1,5.42,1.16,6.06,6.06,0,0,1,3.53,4,1.39,1.39,0,0,0,.68.91,1.35,1.35,0,0,0,1.13.15,1.46,1.46,0,0,0,1.08-1.81,8.83,8.83,0,0,0-4.74-5.72,14.89,14.89,0,0,0-7.11-1.66,11.07,11.07,0,0,0-7.74,2.95,10,10,0,0,0-3.45,7.21,8,8,0,0,0,2.32,6.07q3.07,3.28,9.12,3.35h0.15q4.79,0.08,7,2.42a5.09,5.09,0,0,1,1.51,3.88,7.18,7.18,0,0,1-2.52,5.17,8.22,8.22,0,0,1-5.67,2.12,12.4,12.4,0,0,1-5.42-1.13,6.13,6.13,0,0,1-3.53-4,1.48,1.48,0,0,0-.68-0.91,1.5,1.5,0,0,0-1.13-.15,1.48,1.48,0,0,0-.93.68,1.5,1.5,0,0,0-.15,1.13,8.9,8.9,0,0,0,4.74,5.75,15.07,15.07,0,0,0,7.11,1.64,11.07,11.07,0,0,0,7.74-2.95A10,10,0,0,0,188,242Zm-4.21,30.52h-3a1.14,1.14,0,0,0-.83.34,1.15,1.15,0,0,0-.35.84v12a1.18,1.18,0,0,0,1.19,1.19h0l3,0A7.18,7.18,0,1,0,183.84,272.5Zm3.4,10.57a4.64,4.64,0,0,1-3.41,1.41l-1.84,0v-9.64h1.85A4.8,4.8,0,0,1,187.23,283.07Zm135.26-.69v-0.26l0.09-4.85a7.11,7.11,0,0,0-.26-2.59c-0.57-1.61-2.23-2.51-4.66-2.51a9.68,9.68,0,0,0-3.94.84,13.88,13.88,0,0,0-2.35,1.18l1.61,2.71a7.94,7.94,0,0,1,4.17-1.63c1.39,0,1.7.54,1.7,2.15V278a7.82,7.82,0,0,0-.85,0c-4.59,0-6.94,1.58-6.94,5,0,2.87,1.75,4.51,5,4.51a5,5,0,0,0,2.9-.79,6.49,6.49,0,0,0,.88-0.76,4,4,0,0,0,2,1.75l2-2.32A2.94,2.94,0,0,1,322.49,282.38Zm-3.75,1.33a2.73,2.73,0,0,1-2,1,1.72,1.72,0,0,1-1.67-1.88c0-1.73.92-2.2,3.53-2.2h0.18Zm-89.9-11.18a1.14,1.14,0,0,0-.78.44l-3.7,4.62L220.67,273a1.18,1.18,0,0,0-.79-0.44,1.15,1.15,0,0,0-.87.26,1.18,1.18,0,0,0-.18,1.66l4.35,5.45v5.82a1.15,1.15,0,0,0,.35.84,1.19,1.19,0,0,0,1.67,0,1.15,1.15,0,0,0,.35-0.84v-5.82l4.35-5.45A1.19,1.19,0,0,0,228.84,272.53Zm-15.16,4.13a3.88,3.88,0,0,0-1.3-3,4.54,4.54,0,0,0-3.2-1.21l-4.22,0a1.19,1.19,0,0,0-.83.35,1.16,1.16,0,0,0-.34.83v12A1.2,1.2,0,0,0,205,286.9h4.45a4.47,4.47,0,0,0,3.18-1.24,3.92,3.92,0,0,0,1.33-3,3.85,3.85,0,0,0-1.49-3.1A4,4,0,0,0,213.68,276.66Zm-7.52-1.77,3,0a2.23,2.23,0,0,1,1.5.52,1.59,1.59,0,0,1,.61,1.27,1.74,1.74,0,0,1-.62,1.33,2.19,2.19,0,0,1-1.49.55h-3v-3.65Zm4.77,9.09a2.22,2.22,0,0,1-1.51.54h-3.27v-3.62h3.29a2.23,2.23,0,0,1,1.5.52,1.58,1.58,0,0,1,.61,1.26A1.65,1.65,0,0,1,210.93,284Z" transform="translate(-4.86 -4.35)"/></svg>