<svg id="Layer_1" data-name="Layer 1" xmlns="http://www.w3.org/2000/svg" viewBox="0 0 372.32 283.3"><defs><style>.cls-1{fill:#fff;}</style></defs><title>vs-logo-v-white</title><path class="cls-1" d="M296.14 280.31a.86.86 0 0 1-.76-.39c-.23-.39-.26-.73-.26-3.21v-11.25a22.19 22.19 0 0 0-.19-3.75l-3.86.87a37.55 37.55 0 0 1 .19 4.34v10.73a7.78 7.78 0 0 0 .34 3.24 3.38 3.38 0 0 0 3.36 2 6.31 6.31 0 0 0 2.25-.39l-.65-2.25a1.38 1.38 0 0 1-.42.06zm-219.13-5.6a3.85 3.85 0 0 0 .82-2.4 3.9 3.9 0 0 0-1.32-3 4.46 4.46 0 0 0-3.16-1.23h-4.21a1.18 1.18 0 0 0-1.18 1.19v12a1.17 1.17 0 0 0 1.18 1.19 1.18 1.18 0 0 0 1.19-1.18v-4.79h2l2.66 5.4a1.09 1.09 0 0 0 1.05.66 1.19 1.19 0 0 0 .52-.12 1.2 1.2 0 0 0 .58-1.58l-2.28-4.62a4.32 4.32 0 0 0 2.14-1.52zm-2.13-1.14a2.27 2.27 0 0 1-1.45.55h-3.06v-3.65h3a2.23 2.23 0 0 1 1.5.53 1.65 1.65 0 0 1 0 2.57zm16.9-3.05a1.2 1.2 0 0 0 1.19-1.19 1.17 1.17 0 0 0-.34-.84 1.15 1.15 0 0 0-.84-.35h-7.26a1.12 1.12 0 0 0-.83.35 1.13 1.13 0 0 0-.35.84v12a1.2 1.2 0 0 0 1.19 1.19h7.27a1.2 1.2 0 0 0 1.19-1.19 1.15 1.15 0 0 0-.35-.84 1.12 1.12 0 0 0-.83-.35H85.7v-3.65h4.38a1.17 1.17 0 0 0 .84-.34 1.19 1.19 0 0 0 0-1.69 1.17 1.17 0 0 0-.84-.34H85.7v-3.65zm10.6 3.65h-.05a2.86 2.86 0 0 1-2.09-.67 1.28 1.28 0 0 1-.37-.94 2 2 0 0 1 .71-1.45 2.4 2.4 0 0 1 1.63-.59 3.85 3.85 0 0 1 1.64.33 1.67 1.67 0 0 1 1 1.05 1.14 1.14 0 0 0 .54.72 1.16 1.16 0 0 0 .89.12 1.11 1.11 0 0 0 .71-.54 1.14 1.14 0 0 0 .13-.89 3.81 3.81 0 0 0-2-2.45 6.06 6.06 0 0 0-2.93-.7 4.65 4.65 0 0 0-3.26 1.25 4.26 4.26 0 0 0-1.44 3.05 3.52 3.52 0 0 0 1 2.66 5.07 5.07 0 0 0 3.77 1.42h.05a2.83 2.83 0 0 1 2.09.68 1.25 1.25 0 0 1 .37.93 2 2 0 0 1-.72 1.45 2.36 2.36 0 0 1-1.62.59 3.91 3.91 0 0 1-1.65-.33 1.67 1.67 0 0 1-1-1.05 1.14 1.14 0 0 0-.54-.72 1.16 1.16 0 0 0-.89-.12 1.14 1.14 0 0 0-.72.54 1.16 1.16 0 0 0-.12.89 3.81 3.81 0 0 0 2 2.45 6.06 6.06 0 0 0 2.93.7 4.67 4.67 0 0 0 3.26-1.25 4.25 4.25 0 0 0 1.44-3 3.5 3.5 0 0 0-1-2.66 5 5 0 0 0-3.78-1.47zm36-6a1.15 1.15 0 0 0-.84.35 1.13 1.13 0 0 0-.34.83v8.58l-7.22-9.3a1.16 1.16 0 0 0-.59-.41 1.11 1.11 0 0 0-.72 0 1.14 1.14 0 0 0-.58.43 1.12 1.12 0 0 0-.22.68v12a1.19 1.19 0 0 0 2.37 0v-8.57l7.22 9.29.09.08.07.05H138.47l.16-.07.15-.1h.05V281.68a.15.15 0 0 0 0-.06v.03a.14.14 0 0 0 0-.06.27.27 0 0 0 0-.07.27.27 0 0 0 0-.06v-12.14a1.2 1.2 0 0 0-.5-1.18zm-19.53-21.26a.15.15 0 0 1 .05.08l.1.18.2.2.05.05.15.1.08.05.2.1.18.05h.64l.15-.05.18-.1.08-.05.18-.1.05-.05a1.74 1.74 0 0 0 .18-.2.65.65 0 0 0 .13-.18.19.19 0 0 1 0-.08.16.16 0 0 1 .05-.1l11.64-33.19a1.54 1.54 0 0 0-.05-1.16 1.45 1.45 0 0 0-.88-.78l-.58-.2-.55.28a1.45 1.45 0 0 0-.78.86l-10.23 29.13-10.23-29.13v-.08a.67.67 0 0 0-.08-.15.44.44 0 0 0-.08-.1.33.33 0 0 0-.08-.13l-.1-.1-.1-.1-.13-.1-.13-.08v-.13h-.05-.08l-.15-.05a.2.2 0 0 1-.13 0h-.3a.34.34 0 0 1-.15 0l-.14.05h-.09l-.13.05-.15.08-.1.1-.1.1a.29.29 0 0 0-.1.1l-.1.13a.39.39 0 0 1-.08.1l-.05.15c-.1.19-.1.19-.1.12l-10.23 29.13-10.24-29.13a1.57 1.57 0 0 0-.78-.86 1.48 1.48 0 0 0-2 .71 1.4 1.4 0 0 0-.05 1.16l11.64 33.19a.16.16 0 0 1 .05.1.19.19 0 0 1 0 .08l.1.18a1.76 1.76 0 0 0 .18.2l.05.05.15.1.08.05.2.1.18.05h.64l.15-.05.2-.1.08-.05.15-.1.05-.05a1.74 1.74 0 0 0 .18-.2.66.66 0 0 0 .13-.18.19.19 0 0 1 0-.08.16.16 0 0 1 .05-.1l10.45-29.13 10.23 29.13a.23.23 0 0 1 .02.1zm2.61 23.64a1.2 1.2 0 0 0 1.19-1.19 1.17 1.17 0 0 0-.34-.84 1.15 1.15 0 0 0-.84-.35h-7.26a1.12 1.12 0 0 0-.83.35 1.13 1.13 0 0 0-.35.84v12a1.2 1.2 0 0 0 1.11 1.19h7.27a1.2 1.2 0 0 0 1.19-1.19 1.15 1.15 0 0 0-.35-.84 1.12 1.12 0 0 0-.83-.35h-6.08v-3.65h4.38a1.17 1.17 0 0 0 .84-.34 1.19 1.19 0 0 0 0-1.69 1.17 1.17 0 0 0-.84-.34h-4.38v-3.65zm138.36-96.26a2.44 2.44 0 0 0 3.38-.7l55.59-84.94a2.44 2.44 0 0 0 0-2.68L263.14 1.1a2.44 2.44 0 1 0-4.08 2.68l54.77 83.55-54.77 83.55a2.44 2.44 0 0 0 .71 3.38zm111 70.51h-18.5v-13.6h13.82a1.51 1.51 0 0 0 0-3h-13.83v-13.55l18.5.05a1.43 1.43 0 0 0 1.06-.43 1.48 1.48 0 0 0 .45-1.08 1.45 1.45 0 0 0-.45-1.06 1.4 1.4 0 0 0-1.06-.45l-20-.05a1.34 1.34 0 0 0-1.06.45 1.4 1.4 0 0 0-.45 1.06v33.17a1.55 1.55 0 0 0 1.51 1.51h20a1.53 1.53 0 0 0 0-3.06zm-216.75 23.32h-8.35a1.15 1.15 0 0 0-.84.35 1.19 1.19 0 0 0 0 1.67 1.15 1.15 0 0 0 .84.35h3v10.87a1.15 1.15 0 0 0 .35.84 1.19 1.19 0 0 0 1.67 0 1.15 1.15 0 0 0 .35-.84v-10.87h3a1.19 1.19 0 0 0-.02-2.37zm-128.79-56.4l-.6-.2-.55.28a1.37 1.37 0 0 0-.76.86l-10.23 29.08-10.21-29.09a1.38 1.38 0 0 0-.79-.85 1.48 1.48 0 0 0-2 .71 1.34 1.34 0 0 0 0 1.14l11.62 33.14a.17.17 0 0 1 .05.1.22.22 0 0 1 0 .08.66.66 0 0 0 .13.18 1.76 1.76 0 0 0 .18.2l.02.09.15.1.08.05.2.1.18.05h.64l.15-.05.18-.1.1-.05.15-.1.05-.05.18-.2v-.05a.68.68 0 0 0 .13-.18.19.19 0 0 1 0-.08c0-.1.05-.13.05-.1l11.76-33.13a1.48 1.48 0 0 0-.05-1.13 1.46 1.46 0 0 0-.81-.8zm12.09 0a1.55 1.55 0 0 0-1.51 1.51v33a1.51 1.51 0 0 0 3 0v-33a1.55 1.55 0 0 0-1.48-1.48zm20.94 56.36h-4.17a1.2 1.2 0 0 0-1.19 1.19v12.07a1.2 1.2 0 0 0 1.19 1.21 1.15 1.15 0 0 0 .84-.35 1.13 1.13 0 0 0 .34-.83v-4.83h3.17a4.51 4.51 0 0 0 3.07-1.28 4 4 0 0 0-.05-5.91 4.49 4.49 0 0 0-3.2-1.24zm1.53 5.57a2.21 2.21 0 0 1-1.46.55h-3.07v-3.68h3a2.22 2.22 0 0 1 1.51.54 1.67 1.67 0 0 1 .02 2.59zm13.79-25.82a1.51 1.51 0 0 0 0-3H55.14V231.2h13.83a1.51 1.51 0 0 0 0-3H55.14v-13.55h18.49a1.43 1.43 0 0 0 1.06-.43 1.48 1.48 0 0 0 .45-1.08 1.45 1.45 0 0 0-.45-1.06 1.4 1.4 0 0 0-1.06-.45l-20-.05a1.34 1.34 0 0 0-1.06.45 1.4 1.4 0 0 0-.45 1.06v33.17a1.55 1.55 0 0 0 1.51 1.51h20zm178 0A12.39 12.39 0 0 0 264 235.46v-22.2a1.44 1.44 0 0 0-.43-1.06 1.49 1.49 0 0 0-1.06-.43 1.41 1.41 0 0 0-1 .43 1.44 1.44 0 0 0-.43 1.06v22.2a9.43 9.43 0 0 1-18.85 0v-22.2a1.44 1.44 0 0 0-.43-1.06 1.41 1.41 0 0 0-1-.43 1.46 1.46 0 0 0-1.49 1.49v22.2a12.39 12.39 0 0 0 12.27 12.33zm-142.49-74.28a2.44 2.44 0 1 0 4.08-2.68L58.49 87.33l54.77-83.55a2.457 2.457 0 1 0-4.12-2.68l-55.6 84.89a2.44 2.44 0 0 0 0 2.68zm77-135a48.81 48.81 0 1 0 48.81 48.81 48.87 48.87 0 0 0-48.81-48.85zm0 92.74a43.93 43.93 0 1 1 44-43.96 44 44 0 0 1-44 43.93zm23.84 80.36a18.07 18.07 0 1 0 12.78 5.29 17.41 17.41 0 0 0-12.78-5.29zm10.64 28.71a15 15 0 1 1 4.44-10.64 14.49 14.49 0 0 1-4.44 10.63zm43 27.5c-3.9 0-6.48 3-6.48 7.56s2.56 7.47 6.48 7.47a5.88 5.88 0 0 0 4.76-2 7.82 7.82 0 0 0 1.81-5.58 7.51 7.51 0 0 0-1.67-5.27 6 6 0 0 0-4.95-2.19zm.11 12.29a2.1 2.1 0 0 1-1.92-1.18 10.26 10.26 0 0 1-.48-3.64 10.15 10.15 0 0 1 .4-3.22 2.06 2.06 0 0 1 3.57-.71c.5.65.76 1.92.76 3.87-.05 3.38-.75 4.87-2.38 4.87zm35.01-34.5l-7.18-14.64a10.31 10.31 0 0 0 6.23-3.28 9.19 9.19 0 0 0-.55-13.18 10.64 10.64 0 0 0-7.46-2.85h-11.43a1.49 1.49 0 0 0-1.06.43 1.44 1.44 0 0 0-.43 1.06v32.86a1.46 1.46 0 0 0 1.49 1.49 1.51 1.51 0 0 0 1.51-1.49v-14.9h8.42l7.79 15.8a1.38 1.38 0 0 0 1.34.83 1.45 1.45 0 0 0 .66-.15 1.47 1.47 0 0 0 .76-.86 1.41 1.41 0 0 0-.09-1.12zm-18.88-17.49v-13.51h9.9a7.73 7.73 0 0 1 5.34 2 6.22 6.22 0 0 1 .05 9.48 7.63 7.63 0 0 1-5.22 2h-10.06zm-26 40.63a4.49 4.49 0 0 0-2.85-.9 5.28 5.28 0 0 0-4.09 1.89 4.6 4.6 0 0 0-.57-.71 3.88 3.88 0 0 0-2.93-1.18 5 5 0 0 0-3.52 1.46 3.67 3.67 0 0 0-.5-1.46l-3.42.93c.4.71.54 1.61.54 3.69v10.06h3.69v-10.52a4 4 0 0 1 2.48-1.1c1 0 1.31.42 1.31 2.22v9.39h3.58v-10.37a4.29 4.29 0 0 1 2.51-1.21c1 0 1.19.33 1.19 2.06v9.52h3.67v-10.25c.03-1.98-.23-2.82-1.05-3.53zm32.5-7a2.36 2.36 0 0 0-2.37 2.34 2.32 2.32 0 1 0 2.41-2.31zm-118 8.7a1.2 1.2 0 0 0 1.19-1.19 1.17 1.17 0 0 0-.34-.84 1.15 1.15 0 0 0-.84-.35h-7.26a1.12 1.12 0 0 0-.83.35 1.13 1.13 0 0 0-.35.84v12a1.2 1.2 0 0 0 1.21 1.25h7.27a1.2 1.2 0 0 0 1.19-1.19 1.15 1.15 0 0 0-.35-.84 1.12 1.12 0 0 0-.83-.35h-6.08v-3.65h4.38a1.17 1.17 0 0 0 .84-.34 1.19 1.19 0 0 0 0-1.69 1.17 1.17 0 0 0-.84-.34h-4.38v-3.65zm116.08 12h3.78V267.8l-3.78.59v14.18zm-2.17-11.84v-2.59h-10.69v2.65h6.22l-6.79 9.44v2.34h10.62l.9-2.62h-6.62zm21.67 9.58a.83.83 0 0 1-.75-.39c-.23-.39-.26-.73-.26-3.21v-11.17a20 20 0 0 0-.2-3.75l-3.86.87a36.17 36.17 0 0 1 .2 4.34v10.73c0 2.06 0 2.51.34 3.24a3.39 3.39 0 0 0 3.36 2 6.29 6.29 0 0 0 2.25-.39l-.64-2.25a1.38 1.38 0 0 1-.42.06zm33.83-39.88a1.44 1.44 0 0 0-1.08.4 15.05 15.05 0 1 1-1-23.11 1.32 1.32 0 0 0 1.11.3 1.42 1.42 0 0 0 1-.58 1.44 1.44 0 0 0 .3-1.11 1.43 1.43 0 0 0-.58-1 17.59 17.59 0 0 0-11-3.76 18.11 18.11 0 1 0 12.2 31.5 1.53 1.53 0 0 0-.93-2.56zm-154.63-2.7a7.88 7.88 0 0 0-2.29-6q-3.07-3.28-9.12-3.38H171.58q-4.79-.08-7-2.42a5.06 5.06 0 0 1-1.51-3.86 7.2 7.2 0 0 1 2.52-5.19 8.22 8.22 0 0 1 5.67-2.12 12.19 12.19 0 0 1 5.42 1.16 6.06 6.06 0 0 1 3.53 4 1.39 1.39 0 0 0 .68.91 1.35 1.35 0 0 0 1.13.15 1.46 1.46 0 0 0 1.08-1.81 8.83 8.83 0 0 0-4.74-5.72 14.89 14.89 0 0 0-7.11-1.66 11.07 11.07 0 0 0-7.74 2.95 10 10 0 0 0-3.45 7.21 8 8 0 0 0 2.32 6.07q3.07 3.28 9.12 3.35h.15q4.79.08 7 2.42a5.09 5.09 0 0 1 1.51 3.88 7.18 7.18 0 0 1-2.52 5.17 8.22 8.22 0 0 1-5.67 2.12 12.4 12.4 0 0 1-5.42-1.13 6.13 6.13 0 0 1-3.53-4 1.48 1.48 0 0 0-.68-.91 1.5 1.5 0 0 0-1.13-.15 1.48 1.48 0 0 0-.93.68 1.5 1.5 0 0 0-.15 1.13 8.9 8.9 0 0 0 4.74 5.75 15.07 15.07 0 0 0 7.11 1.64 11.07 11.07 0 0 0 7.74-2.95 10 10 0 0 0 3.42-7.29zm-4.21 30.52h-3a1.14 1.14 0 0 0-.83.34 1.15 1.15 0 0 0-.35.84v12a1.18 1.18 0 0 0 1.19 1.19h3a7.195 7.195 0 1 0 .04-14.39zm3.4 10.57a4.64 4.64 0 0 1-3.41 1.41h-1.84v-9.64h1.85a4.8 4.8 0 0 1 3.44 8.21zm135.26-.69v-.26l.09-4.85a7.11 7.11 0 0 0-.26-2.59c-.57-1.61-2.23-2.51-4.66-2.51a9.68 9.68 0 0 0-3.94.84 13.88 13.88 0 0 0-2.35 1.18l1.61 2.71a7.94 7.94 0 0 1 4.17-1.63c1.39 0 1.7.54 1.7 2.15v.56a7.82 7.82 0 0 0-.85 0c-4.59 0-6.94 1.58-6.94 5 0 2.87 1.75 4.51 5 4.51a5 5 0 0 0 2.9-.79 6.49 6.49 0 0 0 .88-.76 4 4 0 0 0 2 1.75l2-2.32a2.94 2.94 0 0 1-1.31-3.01zm-3.75 1.33a2.73 2.73 0 0 1-2 1 1.72 1.72 0 0 1-1.67-1.88c0-1.73.92-2.2 3.53-2.2h.18zm-89.9-11.18a1.14 1.14 0 0 0-.78.44l-3.7 4.62-3.65-4.61a1.18 1.18 0 0 0-.79-.44 1.15 1.15 0 0 0-.87.26 1.18 1.18 0 0 0-.18 1.66l4.35 5.45v5.82a1.15 1.15 0 0 0 .35.84 1.19 1.19 0 0 0 1.67 0 1.15 1.15 0 0 0 .35-.84v-5.82l4.35-5.45a1.19 1.19 0 0 0-1.06-1.95zm-15.16 4.13a3.88 3.88 0 0 0-1.3-3 4.54 4.54 0 0 0-3.2-1.21h-4.22a1.19 1.19 0 0 0-.83.35 1.16 1.16 0 0 0-.34.83v12a1.2 1.2 0 0 0 1.25 1.25h4.45a4.47 4.47 0 0 0 3.18-1.24 3.92 3.92 0 0 0 1.33-3 3.85 3.85 0 0 0-1.49-3.1 4 4 0 0 0 1.21-2.9zm-7.52-1.77h3a2.23 2.23 0 0 1 1.5.52 1.59 1.59 0 0 1 .61 1.27 1.74 1.74 0 0 1-.62 1.33 2.19 2.19 0 0 1-1.49.55h-3v-3.65zm4.77 9.09a2.22 2.22 0 0 1-1.51.54h-3.27v-3.62h3.29a2.23 2.23 0 0 1 1.5.52 1.58 1.58 0 0 1 .61 1.26 1.65 1.65 0 0 1-.58 1.3z"/></svg>