<?xml version="1.0" standalone="no"?>
<!DOCTYPE svg PUBLIC "-//W3C//DTD SVG 20010904//EN"
 "http://www.w3.org/TR/2001/REC-SVG-20010904/DTD/svg10.dtd">
<svg version="1.0" xmlns="http://www.w3.org/2000/svg"
 width="558.000000pt" height="558.000000pt" viewBox="0 0 558.000000 558.000000"
 preserveAspectRatio="xMidYMid meet">
<metadata>
Created by potrace 1.11, written by Peter Selinger 2001-2013
</metadata>
<g transform="translate(0.000000,558.000000) scale(0.100000,-0.100000)"
fill="#000000" stroke="none">
<path d="M2545 5524 c-16 -2 -84 -11 -150 -20 -458 -62 -934 -267 -1310 -565
-108 -85 -310 -283 -407 -399 -314 -375 -526 -849 -604 -1355 -27 -172 -27
-618 0 -790 78 -506 290 -980 604 -1355 97 -116 299 -314 407 -399 374 -297
825 -492 1310 -567 172 -27 618 -27 790 0 485 75 936 270 1310 567 108 85 310
283 407 399 314 375 526 849 604 1355 27 172 27 618 0 790 -78 506 -290 980
-604 1355 -97 116 -299 314 -407 399 -372 295 -823 491 -1305 567 -100 15
-567 29 -645 18z m-875 -1423 c0 -10 -189 -307 -420 -659 -231 -352 -420 -646
-420 -652 0 -6 189 -299 420 -652 231 -352 420 -649 420 -659 0 -29 -34 -42
-58 -21 -26 22 -872 1315 -872 1332 0 17 846 1310 872 1332 24 21 58 8 58 -21z
m2738 -639 c238 -363 432 -665 432 -672 0 -17 -846 -1310 -872 -1332 -24 -21
-58 -8 -58 21 0 10 189 307 420 659 231 353 420 646 420 652 0 6 -189 300
-420 652 -231 352 -420 649 -420 659 0 23 29 40 50 29 9 -5 210 -305 448 -668z
m-1455 62 c40 -9 113 -35 162 -59 162 -78 272 -188 350 -350 53 -110 75 -205
75 -325 0 -120 -22 -215 -75 -325 -76 -158 -186 -270 -340 -346 -217 -106
-453 -106 -670 0 -154 76 -264 188 -340 346 -53 110 -75 205 -75 325 0 120 22
215 75 325 77 159 186 269 342 347 45 22 115 49 155 59 93 22 246 24 341 3z"/>
<path d="M2675 3456 c-152 -30 -253 -84 -361 -191 -132 -131 -198 -289 -198
-475 0 -311 209 -578 514 -657 85 -22 235 -22 320 0 190 49 357 182 438 347
56 114 76 194 76 310 0 116 -20 196 -76 310 -80 163 -250 299 -432 345 -88 22
-201 26 -281 11z"/>
</g>
</svg>
